<svg width="23" height="23" viewBox="0 0 23 23" fill="none" xmlns="http://www.w3.org/2000/svg">
<g clip-path="url(#clip0)">
<path d="M22.9781 6.76206C22.9242 5.53998 22.7266 4.69982 22.4435 3.9718C22.1515 3.19903 21.7022 2.50717 21.1135 1.93202C20.5383 1.34792 19.8419 0.89405 19.0781 0.606564C18.3459 0.323466 17.5101 0.125841 16.288 0.0719592C15.0568 0.0135143 14.6659 0 11.5433 0C8.42058 0 8.02972 0.0135143 6.80308 0.067396C5.581 0.121278 4.74083 0.319078 4.01299 0.602001C3.24004 0.89405 2.54818 1.34336 1.97303 1.93202C1.38894 2.50717 0.935241 3.20359 0.647579 3.96741C0.364481 4.69982 0.166857 5.53542 0.112975 6.7575C0.0545299 7.98871 0.0410156 8.37957 0.0410156 11.5022C0.0410156 14.6249 0.0545299 15.0158 0.108412 16.2424C0.162293 17.4645 0.360093 18.3047 0.643192 19.0327C0.935241 19.8055 1.38894 20.4973 1.97303 21.0725C2.54818 21.6566 3.24461 22.1104 4.00843 22.3979C4.74083 22.681 5.57644 22.8787 6.79869 22.9325C8.02516 22.9866 8.41619 22.9999 11.5389 22.9999C14.6616 22.9999 15.0524 22.9866 16.2791 22.9325C17.5011 22.8787 18.3413 22.681 19.0691 22.3979C20.6149 21.8003 21.8369 20.5782 22.4346 19.0327C22.7175 18.3003 22.9153 17.4645 22.9692 16.2424C23.023 15.0158 23.0366 14.6249 23.0366 11.5022C23.0366 8.37957 23.032 7.98871 22.9781 6.76206ZM20.9069 16.1526C20.8574 17.2758 20.6687 17.8824 20.5115 18.2868C20.125 19.2888 19.3298 20.084 18.3278 20.4705C17.9234 20.6277 17.3125 20.8164 16.1936 20.8657C14.9805 20.9198 14.6166 20.9331 11.5478 20.9331C8.47903 20.9331 8.11063 20.9198 6.90189 20.8657C5.77862 20.8164 5.17206 20.6277 4.76768 20.4705C4.26906 20.2862 3.81519 19.9941 3.44679 19.6122C3.06488 19.2393 2.77283 18.79 2.58855 18.2913C2.43129 17.887 2.24262 17.2758 2.1933 16.1571C2.13924 14.944 2.1259 14.58 2.1259 11.5112C2.1259 8.4424 2.13924 8.074 2.1933 6.86544C2.24262 5.74217 2.43129 5.13561 2.58855 4.73123C2.77283 4.23243 3.06488 3.77874 3.45136 3.41017C3.82414 3.02826 4.27345 2.73621 4.77225 2.5521C5.17662 2.39484 5.78775 2.20617 6.90645 2.15667C8.11958 2.10279 8.48359 2.08928 11.5522 2.08928C14.6256 2.08928 14.9894 2.10279 16.1981 2.15667C17.3214 2.20617 17.928 2.39484 18.3324 2.5521C18.831 2.73621 19.2848 3.02826 19.6532 3.41017C20.0352 3.78313 20.3272 4.23243 20.5115 4.73123C20.6687 5.13561 20.8574 5.74656 20.9069 6.86544C20.9608 8.07857 20.9743 8.4424 20.9743 11.5112C20.9743 14.58 20.9608 14.9394 20.9069 16.1526Z" fill="#F0C054"/>
<path d="M11.5431 5.59375C8.28129 5.59375 5.63477 8.2401 5.63477 11.5021C5.63477 14.7642 8.28129 17.4105 11.5431 17.4105C14.8052 17.4105 17.4515 14.7642 17.4515 11.5021C17.4515 8.2401 14.8052 5.59375 11.5431 5.59375ZM11.5431 15.3348C9.42702 15.3348 7.71053 13.6184 7.71053 11.5021C7.71053 9.38583 9.42702 7.66951 11.5431 7.66951C13.6595 7.66951 15.3758 9.38583 15.3758 11.5021C15.3758 13.6184 13.6595 15.3348 11.5431 15.3348Z" fill="#F0C054"/>
<path d="M19.0635 5.3598C19.0635 6.12152 18.4459 6.73914 17.684 6.73914C16.9223 6.73914 16.3047 6.12152 16.3047 5.3598C16.3047 4.59791 16.9223 3.98047 17.684 3.98047C18.4459 3.98047 19.0635 4.59791 19.0635 5.3598Z" fill="#F0C054"/>
</g>
<defs>
<clipPath id="clip0">
<rect width="23" height="23" fill="white"/>
</clipPath>
</defs>
</svg>
