<svg width="257" height="110" viewBox="0 0 257 110" fill="none" xmlns="http://www.w3.org/2000/svg">
<g clip-path="url(#clip0)">
<path d="M185.028 21.8172C187.571 21.8172 189.633 19.7595 189.633 17.2211C189.633 14.6827 187.571 12.625 185.028 12.625C182.484 12.625 180.422 14.6827 180.422 17.2211C180.422 19.7595 182.484 21.8172 185.028 21.8172Z" fill="white"/>
<path d="M185.028 34.4383C187.571 34.4383 189.633 32.3806 189.633 29.8422C189.633 27.3038 187.571 25.2461 185.028 25.2461C182.484 25.2461 180.422 27.3038 180.422 29.8422C180.422 32.3806 182.484 34.4383 185.028 34.4383Z" fill="white"/>
<path d="M185.028 47.0008C187.571 47.0008 189.633 44.9431 189.633 42.4047C189.633 39.8663 187.571 37.8086 185.028 37.8086C182.484 37.8086 180.422 39.8663 180.422 42.4047C180.422 44.9431 182.484 47.0008 185.028 47.0008Z" fill="white"/>
<path d="M185.028 59.5672C187.571 59.5672 189.633 57.5095 189.633 54.9711C189.633 52.4327 187.571 50.375 185.028 50.375C182.484 50.375 180.422 52.4327 180.422 54.9711C180.422 57.5095 182.484 59.5672 185.028 59.5672Z" fill="white"/>
<path d="M185.028 84.8133C187.571 84.8133 189.633 82.7556 189.633 80.2172C189.633 77.6788 187.571 75.6211 185.028 75.6211C182.484 75.6211 180.422 77.6788 180.422 80.2172C180.422 82.7556 182.484 84.8133 185.028 84.8133Z" fill="white"/>
<path d="M185.028 97.4383C187.571 97.4383 189.633 95.3805 189.633 92.8422C189.633 90.3038 187.571 88.2461 185.028 88.2461C182.484 88.2461 180.422 90.3038 180.422 92.8422C180.422 95.3805 182.484 97.4383 185.028 97.4383Z" fill="white"/>
<path d="M162.306 34.3797C164.85 34.3797 166.912 32.322 166.912 29.7836C166.912 27.2452 164.85 25.1875 162.306 25.1875C159.762 25.1875 157.7 27.2452 157.7 29.7836C157.7 32.322 159.762 34.3797 162.306 34.3797Z" fill="white"/>
<path d="M162.306 47.0633C164.85 47.0633 166.912 45.0056 166.912 42.4672C166.912 39.9288 164.85 37.8711 162.306 37.8711C159.762 37.8711 157.7 39.9288 157.7 42.4672C157.7 45.0056 159.762 47.0633 162.306 47.0633Z" fill="white"/>
<path d="M162.306 59.5672C164.85 59.5672 166.912 57.5095 166.912 54.9711C166.912 52.4327 164.85 50.375 162.306 50.375C159.762 50.375 157.7 52.4327 157.7 54.9711C157.7 57.5095 159.762 59.5672 162.306 59.5672Z" fill="white"/>
<path d="M162.306 72.1883C164.85 72.1883 166.912 70.1305 166.912 67.5922C166.912 65.0538 164.85 62.9961 162.306 62.9961C159.762 62.9961 157.7 65.0538 157.7 67.5922C157.7 70.1305 159.762 72.1883 162.306 72.1883Z" fill="white"/>
<path d="M162.306 84.7508C164.85 84.7508 166.912 82.693 166.912 80.1547C166.912 77.6163 164.85 75.5586 162.306 75.5586C159.762 75.5586 157.7 77.6163 157.7 80.1547C157.7 82.693 159.762 84.7508 162.306 84.7508Z" fill="white"/>
<path d="M173.974 28.1297C176.518 28.1297 178.58 26.072 178.58 23.5336C178.58 20.9952 176.518 18.9375 173.974 18.9375C171.43 18.9375 169.368 20.9952 169.368 23.5336C169.368 26.072 171.43 28.1297 173.974 28.1297Z" fill="white"/>
<path d="M173.974 40.7508C176.518 40.7508 178.58 38.6931 178.58 36.1547C178.58 33.6163 176.518 31.5586 173.974 31.5586C171.43 31.5586 169.368 33.6163 169.368 36.1547C169.368 38.6931 171.43 40.7508 173.974 40.7508Z" fill="white"/>
<path d="M173.974 53.3133C176.518 53.3133 178.58 51.2555 178.58 48.7172C178.58 46.1788 176.518 44.1211 173.974 44.1211C171.43 44.1211 169.368 46.1788 169.368 48.7172C169.368 51.2555 171.43 53.3133 173.974 53.3133Z" fill="white"/>
<path d="M173.974 65.8758C176.518 65.8758 178.58 63.8181 178.58 61.2797C178.58 58.7413 176.518 56.6836 173.974 56.6836C171.43 56.6836 169.368 58.7413 169.368 61.2797C169.368 63.8181 171.43 65.8758 173.974 65.8758Z" fill="white"/>
<path d="M173.974 78.4383C176.518 78.4383 178.58 76.3805 178.58 73.8422C178.58 71.3038 176.518 69.2461 173.974 69.2461C171.43 69.2461 169.368 71.3038 169.368 73.8422C169.368 76.3805 171.43 78.4383 173.974 78.4383Z" fill="white"/>
<path d="M173.974 91.0047C176.518 91.0047 178.58 88.947 178.58 86.4086C178.58 83.8702 176.518 81.8125 173.974 81.8125C171.43 81.8125 169.368 83.8702 169.368 86.4086C169.368 88.947 171.43 91.0047 173.974 91.0047Z" fill="white"/>
<path d="M252.394 34.3797C254.938 34.3797 257 32.322 257 29.7836C257 27.2452 254.938 25.1875 252.394 25.1875C249.851 25.1875 247.789 27.2452 247.789 29.7836C247.789 32.322 249.851 34.3797 252.394 34.3797Z" fill="white"/>
<path d="M252.394 46.8797C254.938 46.8797 257 44.822 257 42.2836C257 39.7452 254.938 37.6875 252.394 37.6875C249.851 37.6875 247.789 39.7452 247.789 42.2836C247.789 44.822 249.851 46.8797 252.394 46.8797Z" fill="white"/>
<path d="M252.394 59.5672C254.938 59.5672 257 57.5095 257 54.9711C257 52.4327 254.938 50.375 252.394 50.375C249.851 50.375 247.789 52.4327 247.789 54.9711C247.789 57.5095 249.851 59.5672 252.394 59.5672Z" fill="white"/>
<path d="M252.394 72.0047C254.938 72.0047 257 69.9469 257 67.4086C257 64.8702 254.938 62.8125 252.394 62.8125C249.851 62.8125 247.789 64.8702 247.789 67.4086C247.789 69.9469 249.851 72.0047 252.394 72.0047Z" fill="white"/>
<path d="M252.394 84.8758C254.938 84.8758 257 82.818 257 80.2797C257 77.7413 254.938 75.6836 252.394 75.6836C249.851 75.6836 247.789 77.7413 247.789 80.2797C247.789 82.818 249.851 84.8758 252.394 84.8758Z" fill="white"/>
<path d="M240.911 28.1297C243.455 28.1297 245.517 26.072 245.517 23.5336C245.517 20.9952 243.455 18.9375 240.911 18.9375C238.367 18.9375 236.305 20.9952 236.305 23.5336C236.305 26.072 238.367 28.1297 240.911 28.1297Z" fill="white"/>
<path d="M240.911 40.7508C243.455 40.7508 245.517 38.6931 245.517 36.1547C245.517 33.6163 243.455 31.5586 240.911 31.5586C238.367 31.5586 236.305 33.6163 236.305 36.1547C236.305 38.6931 238.367 40.7508 240.911 40.7508Z" fill="white"/>
<path d="M240.911 53.3133C243.455 53.3133 245.517 51.2555 245.517 48.7172C245.517 46.1788 243.455 44.1211 240.911 44.1211C238.367 44.1211 236.305 46.1788 236.305 48.7172C236.305 51.2555 238.367 53.3133 240.911 53.3133Z" fill="white"/>
<path d="M240.911 65.8758C243.455 65.8758 245.517 63.8181 245.517 61.2797C245.517 58.7413 243.455 56.6836 240.911 56.6836C238.367 56.6836 236.305 58.7413 236.305 61.2797C236.305 63.8181 238.367 65.8758 240.911 65.8758Z" fill="white"/>
<path d="M240.911 78.4383C243.455 78.4383 245.517 76.3805 245.517 73.8422C245.517 71.3038 243.455 69.2461 240.911 69.2461C238.367 69.2461 236.305 71.3038 236.305 73.8422C236.305 76.3805 238.367 78.4383 240.911 78.4383Z" fill="white"/>
<path d="M240.911 91.0047C243.455 91.0047 245.517 88.947 245.517 86.4086C245.517 83.8702 243.455 81.8125 240.911 81.8125C238.367 81.8125 236.305 83.8702 236.305 86.4086C236.305 88.947 238.367 91.0047 240.911 91.0047Z" fill="white"/>
<path d="M229.857 21.7547C232.4 21.7547 234.462 19.697 234.462 17.1586C234.462 14.6202 232.4 12.5625 229.857 12.5625C227.313 12.5625 225.251 14.6202 225.251 17.1586C225.251 19.697 227.313 21.7547 229.857 21.7547Z" fill="white"/>
<path d="M229.857 34.4383C232.4 34.4383 234.462 32.3806 234.462 29.8422C234.462 27.3038 232.4 25.2461 229.857 25.2461C227.313 25.2461 225.251 27.3038 225.251 29.8422C225.251 32.3806 227.313 34.4383 229.857 34.4383Z" fill="white"/>
<path d="M229.857 46.8797C232.4 46.8797 234.462 44.822 234.462 42.2836C234.462 39.7452 232.4 37.6875 229.857 37.6875C227.313 37.6875 225.251 39.7452 225.251 42.2836C225.251 44.822 227.313 46.8797 229.857 46.8797Z" fill="white"/>
<path d="M229.857 59.5672C232.4 59.5672 234.462 57.5095 234.462 54.9711C234.462 52.4327 232.4 50.375 229.857 50.375C227.313 50.375 225.251 52.4327 225.251 54.9711C225.251 57.5095 227.313 59.5672 229.857 59.5672Z" fill="white"/>
<path d="M229.857 72.0047C232.4 72.0047 234.462 69.9469 234.462 67.4086C234.462 64.8702 232.4 62.8125 229.857 62.8125C227.313 62.8125 225.251 64.8702 225.251 67.4086C225.251 69.9469 227.313 72.0047 229.857 72.0047Z" fill="white"/>
<path d="M229.857 84.8758C232.4 84.8758 234.462 82.818 234.462 80.2797C234.462 77.7413 232.4 75.6836 229.857 75.6836C227.313 75.6836 225.251 77.7413 225.251 80.2797C225.251 82.818 227.313 84.8758 229.857 84.8758Z" fill="white"/>
<path d="M229.857 97.4383C232.4 97.4383 234.462 95.3805 234.462 92.8422C234.462 90.3038 232.4 88.2461 229.857 88.2461C227.313 88.2461 225.251 90.3038 225.251 92.8422C225.251 95.3805 227.313 97.4383 229.857 97.4383Z" fill="white"/>
<path d="M185.028 72.0047C187.571 72.0047 189.633 69.9469 189.633 67.4086C189.633 64.8702 187.571 62.8125 185.028 62.8125C182.484 62.8125 180.422 64.8702 180.422 67.4086C180.422 69.9469 182.484 72.0047 185.028 72.0047Z" fill="#DA0F21"/>
<path d="M218.803 15.6258C221.347 15.6258 223.409 13.568 223.409 11.0297C223.409 8.49134 221.347 6.43359 218.803 6.43359C216.259 6.43359 214.197 8.49134 214.197 11.0297C214.197 13.568 216.259 15.6258 218.803 15.6258Z" fill="white"/>
<path d="M218.803 27.8836C221.347 27.8836 223.409 25.8259 223.409 23.2875C223.409 20.7492 221.347 18.6914 218.803 18.6914C216.259 18.6914 214.197 20.7492 214.197 23.2875C214.197 25.8259 216.259 27.8836 218.803 27.8836Z" fill="white"/>
<path d="M218.803 40.7508C221.347 40.7508 223.409 38.6931 223.409 36.1547C223.409 33.6163 221.347 31.5586 218.803 31.5586C216.259 31.5586 214.197 33.6163 214.197 36.1547C214.197 38.6931 216.259 40.7508 218.803 40.7508Z" fill="white"/>
<path d="M218.803 53.0086C221.347 53.0086 223.409 50.9509 223.409 48.4125C223.409 45.8742 221.347 43.8164 218.803 43.8164C216.259 43.8164 214.197 45.8742 214.197 48.4125C214.197 50.9509 216.259 53.0086 218.803 53.0086Z" fill="white"/>
<path d="M218.803 65.8758C221.347 65.8758 223.409 63.8181 223.409 61.2797C223.409 58.7413 221.347 56.6836 218.803 56.6836C216.259 56.6836 214.197 58.7413 214.197 61.2797C214.197 63.8181 216.259 65.8758 218.803 65.8758Z" fill="white"/>
<path d="M218.803 78.4383C221.347 78.4383 223.409 76.3805 223.409 73.8422C223.409 71.3038 221.347 69.2461 218.803 69.2461C216.259 69.2461 214.197 71.3038 214.197 73.8422C214.197 76.3805 216.259 78.4383 218.803 78.4383Z" fill="white"/>
<path d="M218.803 91.0047C221.347 91.0047 223.409 88.947 223.409 86.4086C223.409 83.8702 221.347 81.8125 218.803 81.8125C216.259 81.8125 214.197 83.8702 214.197 86.4086C214.197 88.947 216.259 91.0047 218.803 91.0047Z" fill="white"/>
<path d="M218.803 103.626C221.347 103.626 223.409 101.568 223.409 99.0297C223.409 96.4913 221.347 94.4336 218.803 94.4336C216.259 94.4336 214.197 96.4913 214.197 99.0297C214.197 101.568 216.259 103.626 218.803 103.626Z" fill="white"/>
<path d="M207.442 9.1922C209.986 9.1922 212.048 7.13446 212.048 4.5961C212.048 2.05774 209.986 0 207.442 0C204.898 0 202.836 2.05774 202.836 4.5961C202.836 7.13446 204.898 9.1922 207.442 9.1922Z" fill="white"/>
<path d="M207.442 21.7547C209.986 21.7547 212.048 19.697 212.048 17.1586C212.048 14.6202 209.986 12.5625 207.442 12.5625C204.898 12.5625 202.836 14.6202 202.836 17.1586C202.836 19.697 204.898 21.7547 207.442 21.7547Z" fill="white"/>
<path d="M207.442 34.3797C209.986 34.3797 212.048 32.322 212.048 29.7836C212.048 27.2452 209.986 25.1875 207.442 25.1875C204.898 25.1875 202.836 27.2452 202.836 29.7836C202.836 32.322 204.898 34.3797 207.442 34.3797Z" fill="white"/>
<path d="M207.442 46.8797C209.986 46.8797 212.048 44.822 212.048 42.2836C212.048 39.7452 209.986 37.6875 207.442 37.6875C204.898 37.6875 202.836 39.7452 202.836 42.2836C202.836 44.822 204.898 46.8797 207.442 46.8797Z" fill="white"/>
<path d="M207.442 59.7508C209.986 59.7508 212.048 57.6931 212.048 55.1547C212.048 52.6163 209.986 50.5586 207.442 50.5586C204.898 50.5586 202.836 52.6163 202.836 55.1547C202.836 57.6931 204.898 59.7508 207.442 59.7508Z" fill="white"/>
<path d="M207.442 72.1883C209.986 72.1883 212.048 70.1305 212.048 67.5922C212.048 65.0538 209.986 62.9961 207.442 62.9961C204.898 62.9961 202.836 65.0538 202.836 67.5922C202.836 70.1305 204.898 72.1883 207.442 72.1883Z" fill="white"/>
<path d="M207.442 84.8758C209.986 84.8758 212.048 82.818 212.048 80.2797C212.048 77.7413 209.986 75.6836 207.442 75.6836C204.898 75.6836 202.836 77.7413 202.836 80.2797C202.836 82.818 204.898 84.8758 207.442 84.8758Z" fill="white"/>
<path d="M207.442 97.3758C209.986 97.3758 212.048 95.318 212.048 92.7797C212.048 90.2413 209.986 88.1836 207.442 88.1836C204.898 88.1836 202.836 90.2413 202.836 92.7797C202.836 95.318 204.898 97.3758 207.442 97.3758Z" fill="white"/>
<path d="M196.081 15.4422C198.625 15.4422 200.687 13.3845 200.687 10.8461C200.687 8.30774 198.625 6.25 196.081 6.25C193.538 6.25 191.476 8.30774 191.476 10.8461C191.476 13.3845 193.538 15.4422 196.081 15.4422Z" fill="white"/>
<path d="M196.081 28.0672C198.625 28.0672 200.687 26.0095 200.687 23.4711C200.687 20.9327 198.625 18.875 196.081 18.875C193.538 18.875 191.476 20.9327 191.476 23.4711C191.476 26.0095 193.538 28.0672 196.081 28.0672Z" fill="white"/>
<path d="M196.081 40.6297C198.625 40.6297 200.687 38.572 200.687 36.0336C200.687 33.4952 198.625 31.4375 196.081 31.4375C193.538 31.4375 191.476 33.4952 191.476 36.0336C191.476 38.572 193.538 40.6297 196.081 40.6297Z" fill="white"/>
<path d="M196.081 53.2547C198.625 53.2547 200.687 51.197 200.687 48.6586C200.687 46.1202 198.625 44.0625 196.081 44.0625C193.538 44.0625 191.476 46.1202 191.476 48.6586C191.476 51.197 193.538 53.2547 196.081 53.2547Z" fill="white"/>
<path d="M196.081 65.8758C198.625 65.8758 200.687 63.8181 200.687 61.2797C200.687 58.7413 198.625 56.6836 196.081 56.6836C193.538 56.6836 191.476 58.7413 191.476 61.2797C191.476 63.8181 193.538 65.8758 196.081 65.8758Z" fill="white"/>
<path d="M196.081 78.4383C198.625 78.4383 200.687 76.3805 200.687 73.8422C200.687 71.3038 198.625 69.2461 196.081 69.2461C193.538 69.2461 191.476 71.3038 191.476 73.8422C191.476 76.3805 193.538 78.4383 196.081 78.4383Z" fill="white"/>
<path d="M196.081 91.0047C198.625 91.0047 200.687 88.947 200.687 86.4086C200.687 83.8702 198.625 81.8125 196.081 81.8125C193.538 81.8125 191.476 83.8702 191.476 86.4086C191.476 88.947 193.538 91.0047 196.081 91.0047Z" fill="white"/>
<path d="M196.081 103.626C198.625 103.626 200.687 101.568 200.687 99.0297C200.687 96.4913 198.625 94.4336 196.081 94.4336C193.538 94.4336 191.476 96.4913 191.476 99.0297C191.476 101.568 193.538 103.626 196.081 103.626Z" fill="white"/>
<path d="M207.442 110.001C209.986 110.001 212.048 107.943 212.048 105.405C212.048 102.866 209.986 100.809 207.442 100.809C204.898 100.809 202.836 102.866 202.836 105.405C202.836 107.943 204.898 110.001 207.442 110.001Z" fill="white"/>
<path d="M26.1604 68.266H4.60559V56.2548H24.1339V51.72H4.60559V40.8732H25.6691V36.4609H0.184082V72.6782H26.1604V68.266ZM67.9805 72.6782V36.4609H61.4711C61.4711 36.4609 59.9972 40.1378 59.8744 40.5668L51.2156 66.6726H51.0928L42.3726 40.5668C42.2498 40.1378 40.776 36.4609 40.776 36.4609H34.2051V72.6782H38.688V51.2297C38.688 50.188 38.5652 45.8983 38.5652 42.5278H38.688L48.6364 72.6782H53.5492L63.4976 42.5278H63.6204C63.6204 45.9595 63.4976 72.6782 63.4976 72.6782H67.9805ZM81.0608 40.5055H90.2108C95.7377 40.5055 98.0099 42.4665 98.0099 45.837C98.0099 50.3105 94.9394 51.5974 90.2108 51.5974H81.0608V40.5055ZM76.5779 72.6782H92.0531C100.159 72.6782 104.028 67.8983 104.028 62.0765C104.028 55.8258 100.282 54.11 97.8871 53.1295C101.94 51.2297 102.247 47.9205 102.247 45.5306C102.247 40.5055 99.2381 36.4609 92.4216 36.4609H76.5779V72.6782ZM81.0608 55.7646H90.9478C95.0008 55.7646 99.668 56.8063 99.668 61.954C99.668 65.9985 96.9045 68.6336 91.7461 68.6336H81.0608V55.7646ZM116.003 36.4609H111.213V72.6782H135.101V68.1434H116.003V36.4609Z" fill="white"/>
</g>
<defs>
<clipPath id="clip0">
<rect width="257" height="110" fill="white"/>
</clipPath>
</defs>
</svg>
