<svg width="198" height="42" viewBox="0 0 198 42" fill="none" xmlns="http://www.w3.org/2000/svg">
<rect x="0.5" y="0.5" width="41" height="41" stroke="#878787"/>
<path d="M17.4948 28.667H19.0458L19.5838 25.291C19.6883 24.6315 20.0246 24.0308 20.5324 23.5971C21.0402 23.1634 21.686 22.9251 22.3538 22.925H22.8538C25.5308 22.925 26.9138 21.942 27.4038 19.422C27.6118 18.356 27.5208 17.692 27.2328 17.32C26.0258 20.374 23.4428 21.48 20.2708 21.48H19.3868C19.0028 21.48 18.5928 21.689 18.5348 22.06L17.4948 28.667ZM12.5508 28.373C12.4711 28.373 12.3925 28.3557 12.3202 28.3223C12.2479 28.289 12.1837 28.2404 12.132 28.1798C12.0803 28.1193 12.0423 28.0483 12.0207 27.9716C11.9991 27.895 11.9943 27.8146 12.0068 27.736L14.6798 10.776C14.7141 10.5594 14.8246 10.3622 14.9915 10.22C15.1583 10.0777 15.3705 9.99968 15.5898 10H22.0138C24.2258 10 25.9558 10.467 26.9128 11.558C27.7828 12.548 28.0358 13.642 27.7838 15.25C28.1438 15.441 28.4518 15.675 28.6998 15.956C29.5178 16.889 29.6778 18.216 29.3678 19.806C28.6278 23.611 26.0918 24.926 22.8538 24.926H22.3538C22.1623 24.9263 21.9772 24.9948 21.8316 25.1192C21.6861 25.2436 21.5897 25.4159 21.5598 25.605L20.8578 29.988C20.828 30.1772 20.7316 30.3496 20.5861 30.474C20.4405 30.5985 20.2553 30.6669 20.0638 30.667H15.7198C15.65 30.667 15.5811 30.6519 15.5177 30.6227C15.4544 30.5934 15.3981 30.5509 15.3528 30.4978C15.3074 30.4448 15.2741 30.3826 15.2551 30.3155C15.2361 30.2484 15.2319 30.1779 15.2428 30.109L15.5168 28.373H12.5498H12.5508ZM19.3868 19.479H20.2708C23.4608 19.479 25.1658 18.267 25.7538 15.25C25.7738 15.149 25.7908 15.047 25.8068 14.941C25.9728 13.881 25.8568 13.388 25.4088 12.878C24.9438 12.348 23.8058 12 22.0128 12H16.5128L14.2458 26.373H15.8068L16.5368 21.745L16.5438 21.746C16.6906 21.1019 17.0519 20.5268 17.5684 20.1149C18.085 19.703 18.7261 19.4788 19.3868 19.479Z" fill="white"/>
<rect x="52.5" y="0.5" width="41" height="41" stroke="#878787"/>
<path d="M83.222 24.7691L82.997 23.6441H80.483L80.083 24.7611L78.068 24.7651C79.0273 22.4582 79.9886 20.1522 80.952 17.8471C81.116 17.4561 81.407 17.2571 81.836 17.2591C82.164 17.2621 82.699 17.2621 83.442 17.2601L85 24.7661L83.222 24.7691ZM81.049 22.1031H82.669L82.064 19.2831L81.049 22.1031ZM68.06 17.2581L70.086 17.2601L66.954 24.7701L64.903 24.7681C64.3872 22.7844 63.8779 20.7991 63.375 18.8121C63.275 18.4161 63.077 18.1391 62.696 18.0081C62.357 17.8911 61.792 17.7111 61 17.4661V17.2611H64.237C64.797 17.2611 65.124 17.5321 65.229 18.0881C65.335 18.6451 65.601 20.0631 66.029 22.3421L68.06 17.2581ZM72.87 17.2601L71.268 24.7681L69.34 24.7661L70.94 17.2581L72.87 17.2601ZM76.78 17.1211C77.357 17.1211 78.084 17.3011 78.502 17.4661L78.164 19.0231C77.786 18.8711 77.164 18.6661 76.641 18.6731C75.881 18.6861 75.411 19.0051 75.411 19.3111C75.411 19.8091 76.227 20.0601 77.067 20.6041C78.026 21.2241 78.152 21.7811 78.14 22.3861C78.127 23.6421 77.067 24.8811 74.831 24.8811C73.811 24.8661 73.443 24.7801 72.611 24.4851L72.963 22.8601C73.81 23.2151 74.169 23.3281 74.893 23.3281C75.556 23.3281 76.125 23.0601 76.13 22.5931C76.134 22.2611 75.93 22.0961 75.186 21.6861C74.442 21.2751 73.398 20.7061 73.412 19.5641C73.429 18.1021 74.814 17.1211 76.781 17.1211H76.78Z" fill="white"/>
<rect x="104.5" y="0.5" width="41" height="41" stroke="#878787"/>
<path d="M125 15.6531C125.809 16.2886 126.464 17.1 126.914 18.0259C127.363 18.9517 127.597 19.9678 127.596 20.9971C127.596 22.026 127.363 23.0417 126.913 23.9672C126.463 24.8926 125.809 25.7037 125 26.3391C124.19 25.7036 123.536 24.8924 123.086 23.9667C122.636 23.041 122.403 22.0252 122.404 20.9961C122.403 19.9669 122.636 18.9511 123.086 18.0254C123.536 17.0997 124.19 16.2885 125 15.6531ZM124.13 15.0711C123.273 15.8026 122.585 16.7116 122.113 17.7351C121.642 18.7586 121.398 19.8722 121.4 20.9991C121.398 22.1254 121.642 23.2386 122.113 24.2617C122.584 25.2848 123.271 26.1935 124.128 26.9251C123.093 27.5059 121.924 27.8058 120.738 27.7949C119.552 27.7841 118.389 27.463 117.365 26.8634C116.341 26.2638 115.492 25.4067 114.902 24.3773C114.312 23.3479 114.002 22.182 114.002 20.9955C114.002 19.809 114.313 18.6433 114.904 17.6141C115.494 16.585 116.344 15.7283 117.368 15.1293C118.392 14.5303 119.555 14.2097 120.741 14.1995C121.928 14.1893 123.096 14.4897 124.131 15.0711H124.13ZM125.872 26.9251C126.728 26.1935 127.416 25.2848 127.886 24.2617C128.357 23.2386 128.601 22.1254 128.6 20.9991C128.601 19.8722 128.357 18.7586 127.886 17.7351C127.415 16.7116 126.727 15.8026 125.87 15.0711C126.904 14.4897 128.072 14.1893 129.259 14.1995C130.445 14.2097 131.608 14.5303 132.633 15.1293C133.657 15.7283 134.506 16.585 135.097 17.6141C135.687 18.6433 135.998 19.809 135.998 20.9955C135.999 22.182 135.688 23.3479 135.098 24.3773C134.508 25.4067 133.659 26.2638 132.636 26.8634C131.612 27.463 130.449 27.7841 129.262 27.7949C128.076 27.8058 126.907 27.5059 125.873 26.9251H125.872Z" fill="white"/>
<rect x="156.5" y="0.5" width="41" height="41" stroke="#878787"/>
<path d="M177 13C183.075 13 188 15.686 188 19V23C188 26.314 183.075 29 177 29C171.033 29 166.176 26.409 166.005 23.177L166 23V19C166 15.686 170.925 13 177 13ZM177 25C173.28 25 169.99 23.993 168 22.45V23C168 24.882 171.883 27 177 27C182.01 27 185.838 24.97 185.995 23.118L186 23L186.001 22.45C184.011 23.992 180.721 25 177 25ZM177 15C171.883 15 168 17.118 168 19C168 20.882 171.883 23 177 23C182.117 23 186 20.882 186 19C186 17.118 182.117 15 177 15Z" fill="white"/>
</svg>
