<svg width="76" height="85" viewBox="0 0 76 85" fill="none" xmlns="http://www.w3.org/2000/svg">
<path d="M45.3651 1.59486C43.0257 9.42686 39.8217 17.1063 35.7531 24.6331C31.7863 32.16 27.7686 38.0594 23.7 42.3314C27.7686 46.5017 31.7863 52.452 35.7531 60.1823C39.72 67.8109 42.924 75.592 45.3651 83.5257L43.0766 84.2886C36.7703 75.5411 30.2097 67.8617 23.3949 61.2503C16.6817 54.5371 9.20571 48.6377 0.966857 43.552V41.5686C9.104 36.4829 16.5291 30.5834 23.2423 23.8703C30.0571 17.1571 36.6686 9.42685 43.0766 0.679422L45.3651 1.59486ZM75.7269 5.25657C73.6926 12.4783 70.9463 19.4966 67.488 26.3114C64.0297 33.1263 60.5206 38.4663 56.9606 42.3314C60.5206 46.1966 64.0297 51.5874 67.488 58.504C70.9463 65.4206 73.6926 72.5406 75.7269 79.864L73.4383 80.6269C67.7423 72.6931 61.792 65.6749 55.5874 59.572C49.3829 53.4691 42.568 48.1291 35.1429 43.552V41.5686C42.6697 36.9914 49.4846 31.6514 55.5874 25.5486C61.792 19.344 67.7423 12.2749 73.4383 4.34114L75.7269 5.25657Z" fill="#9C8253"/>
</svg>
