<svg width="84" height="82" viewBox="0 0 84 82" fill="none" xmlns="http://www.w3.org/2000/svg">
<path fill-rule="evenodd" clip-rule="evenodd" d="M20.8227 3.85156H62.4683L83.291 39.9211L62.4683 75.9861H20.8228L0 39.9211L20.8227 3.85156ZM21.0963 4.32531L0.547035 39.9211L21.0963 75.5123H62.1947L82.744 39.9211L62.1947 4.32531H21.0963Z" fill="white"/>
<path fill-rule="evenodd" clip-rule="evenodd" d="M62.3315 81.6385H20.9595V81.168H62.3315V81.6385Z" fill="white"/>
<path d="M48.5036 0H34.7925V8.3833H48.5036V0Z" fill="white"/>
<path d="M57.9035 37.6241L62.0974 27.2339L66.3138 37.6241H57.9035ZM69.0407 44.3379H69.5852L62.2954 26.6579H61.8949L54.6321 44.3379H55.1495L57.7055 38.0381H66.4938L69.0407 44.3379ZM50.1412 44.3379V27.2069H56.171V26.7569H43.6703V27.2069H49.6957V44.3379H50.1412ZM34.5446 44.1355C32.8331 44.147 31.1568 43.6501 29.7282 42.7076C28.2997 41.7651 27.1832 40.4196 26.5204 38.8417C25.8576 37.2637 25.6784 35.5245 26.0055 33.8446C26.3326 32.1647 27.1513 30.6198 28.3577 29.4058C29.5641 28.1918 31.1038 27.3635 32.7816 27.0259C34.4595 26.6882 36.1998 26.8565 37.7818 27.5094C39.3639 28.1622 40.7164 29.2703 41.6678 30.6929C42.6192 32.1155 43.1267 33.7887 43.1258 35.5002C43.1271 37.7814 42.2251 39.9704 40.6171 41.5885C39.009 43.2067 36.8258 44.1224 34.5446 44.1355ZM34.5446 26.4284C32.7501 26.4275 30.9958 26.9588 29.5033 27.9551C28.0109 28.9513 26.8474 30.3679 26.1601 32.0254C25.4728 33.683 25.2925 35.5072 25.642 37.2672C25.9916 39.0273 26.8552 40.6441 28.1237 41.9133C29.3923 43.1824 31.0087 44.0469 32.7686 44.3973C34.5285 44.7477 36.3527 44.5683 38.0106 43.8818C39.6685 43.1953 41.0856 42.0326 42.0826 40.5406C43.0797 39.0487 43.6118 37.2946 43.6118 35.5002C43.6106 33.0953 42.6551 30.7893 40.955 29.0884C39.255 27.3875 36.9494 26.4308 34.5446 26.4284ZM22.5478 40.4365C22.5478 42.6145 20.7974 44.1355 18.2685 44.1355C16.608 44.1355 15.1995 43.393 14.0521 41.6965L13.7056 41.926C14.1583 42.7287 14.8178 43.3954 15.6155 43.8568C16.4132 44.3181 17.32 44.5573 18.2415 44.5494C20.9954 44.5494 23.0338 42.8845 23.0338 40.387C23.0338 38.1371 21.9134 36.4271 18.4709 35.3067C15.6855 34.4067 14.6235 33.0567 14.6235 30.7438C14.6258 30.2245 14.7313 29.7108 14.9338 29.2326C15.1364 28.7544 15.4319 28.3213 15.8033 27.9583C16.1746 27.5953 16.6144 27.3097 17.0971 27.1181C17.5798 26.9266 18.0957 26.8328 18.6149 26.8424C20.7659 26.8424 21.9449 27.8774 22.5748 29.3668L23.0248 29.1373C22.1249 27.1574 20.4689 26.4104 18.6599 26.4104C18.0673 26.4044 17.4795 26.5167 16.9308 26.7407C16.3821 26.9647 15.8837 27.2959 15.4646 27.715C15.0456 28.134 14.7143 28.6325 14.4903 29.1812C14.2663 29.7298 14.154 30.3177 14.1601 30.9103C14.1601 33.2907 15.4785 34.8387 18.237 35.7027C21.4949 36.7601 22.5478 38.3981 22.5478 40.4365Z" fill="white"/>
<path fill-rule="evenodd" clip-rule="evenodd" d="M61.8949 26.6579H62.2954L69.5852 44.3379H69.0407L66.4938 38.0381H57.7055L55.1495 44.3379H54.6321L61.8949 26.6579ZM62.0974 27.2339L57.9035 37.6241H66.3138L62.0974 27.2339ZM43.6703 27.2069V26.7569H56.171V27.2069H50.1412V44.3379H49.6957V27.2069H43.6703ZM34.5446 26.4284C32.7501 26.4275 30.9958 26.9588 29.5033 27.9551C28.0109 28.9513 26.8474 30.3679 26.1601 32.0254C25.4728 33.683 25.2925 35.5072 25.642 37.2672C25.9916 39.0273 26.8552 40.6441 28.1237 41.9133C29.3923 43.1824 31.0087 44.0469 32.7686 44.3973C34.5285 44.7477 36.3527 44.5683 38.0106 43.8818C39.6685 43.1953 41.0856 42.0326 42.0826 40.5406C43.0797 39.0487 43.6118 37.2946 43.6118 35.5002C43.6106 33.0953 42.6551 30.7893 40.955 29.0884C39.255 27.3875 36.9494 26.4308 34.5446 26.4284ZM14.0521 41.6965C15.1995 43.393 16.608 44.1355 18.2685 44.1355C20.7974 44.1355 22.5478 42.6145 22.5478 40.4365C22.5478 38.3981 21.4949 36.7601 18.237 35.7027C15.4785 34.8387 14.1601 33.2907 14.1601 30.9103C14.154 30.3177 14.2663 29.7298 14.4903 29.1812C14.7143 28.6325 15.0456 28.134 15.4646 27.715C15.8837 27.2959 16.3821 26.9647 16.9308 26.7407C17.4795 26.5167 18.0673 26.4044 18.6599 26.4104C20.4689 26.4104 22.1249 27.1574 23.0248 29.1373L22.5748 29.3668C22.5323 29.2663 22.4873 29.1678 22.4396 29.0715C21.7812 27.7423 20.6207 26.8424 18.6149 26.8424C18.0957 26.8328 17.5798 26.9266 17.0971 27.1181C16.6144 27.3097 16.1746 27.5953 15.8033 27.9583C15.4319 28.3213 15.1364 28.7544 14.9338 29.2326C14.7313 29.7108 14.6258 30.2245 14.6235 30.7438C14.6235 33.0567 15.6855 34.4067 18.4709 35.3067C21.9134 36.4271 23.0338 38.1371 23.0338 40.387C23.0338 42.8845 20.9954 44.5494 18.2415 44.5494C17.32 44.5573 16.4132 44.3181 15.6155 43.8568C14.8178 43.3954 14.1583 42.7287 13.7056 41.926L14.0521 41.6965C14.0521 41.6965 14.0521 41.6966 14.0521 41.6965ZM43.1258 35.5002C43.1267 33.7887 42.6192 32.1155 41.6678 30.6929C40.7164 29.2703 39.3639 28.1622 37.7818 27.5094C36.1998 26.8565 34.4595 26.6882 32.7816 27.0259C31.1038 27.3635 29.5641 28.1918 28.3577 29.4058C27.1513 30.6198 26.3326 32.1647 26.0055 33.8446C25.6784 35.5245 25.8576 37.2637 26.5204 38.8417C27.1832 40.4196 28.2997 41.7651 29.7282 42.7076C31.1568 43.6501 32.8331 44.147 34.5446 44.1355C36.8258 44.1224 39.009 43.2067 40.6171 41.5885C42.2251 39.9704 43.1271 37.7814 43.1258 35.5002Z" fill="white"/>
<path d="M68.3165 48.0679C68.3165 47.9689 68.366 47.9239 68.465 47.9239H68.627C68.6649 47.9218 68.7021 47.9347 68.7305 47.9599C68.7443 47.9741 68.7551 47.9911 68.7621 48.0097C68.769 48.0282 68.7721 48.0481 68.771 48.0679V53.5982C68.7733 53.6175 68.7711 53.6371 68.7646 53.6553C68.7581 53.6736 68.7475 53.6902 68.7336 53.7037C68.7196 53.7172 68.7028 53.7273 68.6843 53.7332C68.6658 53.7391 68.6462 53.7407 68.627 53.7377H68.465C68.366 53.7377 68.3165 53.6927 68.3165 53.5982V48.0679ZM65.4861 51.8388C65.4868 51.6318 65.4518 51.4263 65.3826 51.2313C65.3176 51.0464 65.2184 50.8755 65.0901 50.7273C64.9668 50.583 64.8132 50.4678 64.6401 50.3898C64.462 50.3039 64.2663 50.2607 64.0686 50.2638C63.868 50.2606 63.6694 50.3038 63.4881 50.3898C63.3161 50.4695 63.1628 50.5845 63.0382 50.7273C62.9101 50.8747 62.8095 51.0439 62.7412 51.2268C62.6682 51.421 62.6316 51.6269 62.6332 51.8343C62.632 52.0417 62.6686 52.2475 62.7412 52.4418C62.8094 52.6244 62.9117 52.7924 63.0427 52.9368C63.1687 53.0769 63.3218 53.1902 63.4926 53.2698C63.6734 53.3521 63.87 53.3936 64.0686 53.3913C64.2604 53.3928 64.4503 53.3534 64.6256 53.2758C64.801 53.1983 64.9578 53.0842 65.0856 52.9413C65.2147 52.7971 65.3141 52.6289 65.3781 52.4463C65.451 52.2521 65.4876 52.0462 65.4861 51.8388ZM65.9361 53.6027C65.9374 53.6219 65.9344 53.6411 65.9274 53.659C65.9204 53.6769 65.9095 53.693 65.8956 53.7062C65.8632 53.7343 65.8213 53.7488 65.7786 53.7467H65.6526C65.6316 53.749 65.6103 53.7464 65.5904 53.7392C65.5705 53.732 65.5525 53.7204 65.5378 53.7052C65.523 53.6901 65.5119 53.6717 65.5053 53.6516C65.4987 53.6315 65.4967 53.6102 65.4996 53.5892V52.9098C65.4544 53.0515 65.3843 53.1841 65.2926 53.3013C65.2012 53.4145 65.0918 53.5118 64.9686 53.5892C64.8405 53.6698 64.7009 53.7305 64.5546 53.7692C64.3976 53.8115 64.2357 53.8327 64.0731 53.8322C63.8173 53.8331 63.5641 53.7794 63.3306 53.6747C63.1038 53.5673 62.9015 53.4141 62.7367 53.2248C62.5644 53.0404 62.4285 52.8251 62.3362 52.5903C62.2397 52.3421 62.1909 52.078 62.1922 51.8118C62.1912 51.5441 62.2401 51.2786 62.3362 51.0288C62.4262 50.7925 62.5607 50.5756 62.7322 50.3898C62.896 50.1994 63.0985 50.0461 63.3261 49.9398C63.5624 49.8339 63.8187 49.7802 64.0776 49.7823C64.2435 49.7814 64.4087 49.8042 64.5681 49.8498C64.7177 49.8916 64.8602 49.9553 64.9911 50.0388C65.1128 50.1165 65.2208 50.2138 65.3106 50.3268C65.3976 50.435 65.4632 50.5587 65.5041 50.6913V50.0253C65.505 49.9817 65.5191 49.9393 65.5446 49.9038C65.559 49.8889 65.5766 49.8775 65.5961 49.8705C65.6156 49.8634 65.6365 49.861 65.6571 49.8633H65.7696C65.811 49.8615 65.8514 49.8761 65.8821 49.9038C65.8983 49.9194 65.9107 49.9384 65.9185 49.9594C65.9263 49.9805 65.9293 50.003 65.9271 50.0253L65.9361 53.6027ZM57.3233 53.6027C57.3256 53.622 57.3234 53.6416 57.3169 53.6598C57.3104 53.6781 57.2998 53.6947 57.2859 53.7082C57.2719 53.7217 57.255 53.7318 57.2366 53.7377C57.2181 53.7436 57.1985 53.7452 57.1793 53.7422H57.0173C56.9183 53.7422 56.8688 53.6972 56.8688 53.6027V50.0028C56.8688 49.9701 56.8799 49.9384 56.9003 49.9128C56.9122 49.9012 56.9263 49.892 56.9417 49.8858C56.9571 49.8797 56.9737 49.8766 56.9903 49.8768H57.2243C57.2447 49.87 57.2669 49.87 57.2873 49.8768C57.3026 49.8945 57.3121 49.9165 57.3143 49.9398V50.4708C57.3795 50.3718 57.4566 50.2812 57.5438 50.2008C57.6321 50.1172 57.7303 50.0446 57.8363 49.9848C58.0542 49.8516 58.3054 49.783 58.5608 49.7868C58.7686 49.7797 58.9756 49.8161 59.1685 49.8936C59.3614 49.9711 59.5361 50.088 59.6812 50.2368C59.9749 50.5461 60.1363 50.9578 60.1312 51.3843V53.5307C60.133 53.552 60.1303 53.5734 60.1233 53.5935C60.1164 53.6137 60.1053 53.6321 60.0907 53.6477C60.06 53.6755 60.0196 53.6901 59.9782 53.6882H59.8162C59.7968 53.6896 59.7772 53.6872 59.7586 53.681C59.7401 53.6748 59.723 53.6651 59.7082 53.6522C59.6838 53.6184 59.6726 53.5768 59.6767 53.5352V51.3798C59.6759 51.2245 59.6422 51.0711 59.5777 50.9298C59.5182 50.7918 59.4327 50.6665 59.3257 50.5608C59.2187 50.4567 59.0937 50.3729 58.9568 50.3133C58.8142 50.2538 58.6612 50.2232 58.5068 50.2233C58.3522 50.2226 58.1991 50.2532 58.0568 50.3133C57.9169 50.3662 57.7885 50.4457 57.6788 50.5473C57.5681 50.6475 57.4779 50.7682 57.4133 50.9028C57.3459 51.0437 57.3076 51.1968 57.3008 51.3528L57.3233 53.6027ZM51.3474 51.8343C51.3478 52.0419 51.386 52.2478 51.4599 52.4418C51.532 52.6245 51.6373 52.7923 51.7704 52.9368C51.9076 53.0834 52.0735 53.2002 52.2577 53.2801C52.4419 53.36 52.6406 53.4012 52.8414 53.4012C53.0422 53.4012 53.2409 53.36 53.4251 53.2801C53.6093 53.2002 53.7752 53.0834 53.9124 52.9368C54.0471 52.7935 54.1525 52.6254 54.2229 52.4418C54.3005 52.2487 54.3403 52.0424 54.3399 51.8343C54.3406 51.6261 54.3009 51.4198 54.2229 51.2268C54.1515 51.0424 54.0461 50.873 53.9124 50.7273C53.7844 50.5881 53.6318 50.4737 53.4624 50.3898C53.273 50.3096 53.0695 50.2683 52.8639 50.2683C52.6583 50.2683 52.4548 50.3096 52.2654 50.3898C52.096 50.4737 51.9434 50.5881 51.8154 50.7273C51.6832 50.8741 51.5781 51.0432 51.5049 51.2268C51.4141 51.416 51.3592 51.6205 51.3429 51.8298L51.3474 51.8343ZM50.8974 51.8343C50.8962 51.5662 50.9466 51.3003 51.0459 51.0513C51.1382 50.8154 51.2758 50.5998 51.4509 50.4168C51.6206 50.225 51.8292 50.0716 52.0629 49.9668C52.4264 49.8112 52.8288 49.7708 53.2159 49.8513C53.603 49.9318 53.9561 50.1292 54.2274 50.4168C54.401 50.601 54.5384 50.8163 54.6324 51.0513C54.7317 51.3003 54.7821 51.5662 54.7809 51.8343C54.7841 52.361 54.5843 52.8686 54.2229 53.2518C54.0487 53.4406 53.8393 53.5934 53.6064 53.7017C53.3621 53.8074 53.0985 53.861 52.8324 53.8592C52.5692 53.8606 52.3087 53.8069 52.0674 53.7017C51.8338 53.5946 51.6242 53.4416 51.4509 53.2518C51.2782 53.0652 51.1409 52.8486 51.0459 52.6128C50.9453 52.3641 50.8948 52.098 50.8974 51.8298V51.8343ZM48.1975 48.7924C48.1973 48.7445 48.2065 48.6971 48.2245 48.6529C48.2436 48.6089 48.2711 48.5692 48.3055 48.5359C48.3359 48.5001 48.3745 48.4723 48.418 48.4549C48.4623 48.4368 48.5097 48.4276 48.5575 48.4279C48.6055 48.4273 48.6532 48.4363 48.6977 48.4544C48.7422 48.4725 48.7826 48.4993 48.8166 48.5333C48.8506 48.5672 48.8774 48.6077 48.8955 48.6522C48.9136 48.6967 48.9226 48.7443 48.922 48.7924C48.9226 48.8417 48.9134 48.8906 48.895 48.9364C48.8778 48.9802 48.8517 49.02 48.8184 49.0533C48.7851 49.0866 48.7453 49.1127 48.7015 49.1299C48.6556 49.1478 48.6068 49.157 48.5575 49.1569C48.5097 49.1571 48.4623 49.1479 48.418 49.1299C48.3756 49.1124 48.3373 49.0863 48.3055 49.0534C48.272 49.0193 48.2446 48.9797 48.2245 48.9364C48.2116 48.888 48.2085 48.8375 48.2155 48.7879L48.1975 48.7924ZM48.337 50.0433C48.3347 50.0235 48.337 50.0034 48.3438 49.9845C48.3505 49.9657 48.3615 49.9487 48.3758 49.9348C48.3902 49.9209 48.4075 49.9104 48.4265 49.9043C48.4456 49.8981 48.4657 49.8964 48.4855 49.8993H48.6475C48.6666 49.8989 48.6856 49.9022 48.7033 49.9092C48.7211 49.9162 48.7373 49.9266 48.751 49.9398C48.7647 49.9532 48.7754 49.9694 48.7824 49.9872C48.7894 50.0051 48.7925 50.0242 48.7915 50.0433V53.6027C48.7938 53.622 48.7916 53.6416 48.7851 53.6598C48.7786 53.6781 48.768 53.6947 48.7541 53.7082C48.7401 53.7217 48.7233 53.7318 48.7048 53.7377C48.6863 53.7436 48.6667 53.7452 48.6475 53.7422H48.4945C48.3955 53.7422 48.346 53.6972 48.346 53.6027L48.337 50.0433ZM45.5831 50.6958C45.5011 50.5619 45.3885 50.4494 45.2546 50.3673C45.1094 50.2846 44.9446 50.2426 44.7776 50.2458C44.6753 50.2443 44.5735 50.2595 44.4761 50.2908C44.389 50.3188 44.3081 50.3631 44.2376 50.4213C44.1718 50.4773 44.1182 50.5462 44.0801 50.6238C44.0432 50.7042 44.0248 50.7919 44.0261 50.8803C44.025 50.9661 44.0484 51.0504 44.0936 51.1233C44.1418 51.194 44.2029 51.2551 44.2736 51.3033C44.3487 51.3532 44.4286 51.3954 44.5121 51.4293C44.5922 51.4631 44.675 51.4902 44.7596 51.5103L44.8721 51.5418C45.2143 51.6067 45.5328 51.762 45.7946 51.9918C45.8964 52.0828 45.9775 52.1945 46.0326 52.3195C46.0877 52.4444 46.1155 52.5797 46.1141 52.7163C46.1172 52.8817 46.0802 53.0454 46.0061 53.1933C45.9308 53.3285 45.8281 53.4465 45.7046 53.5398C45.57 53.6402 45.4172 53.7136 45.2546 53.7557C45.0881 53.8051 44.9152 53.8294 44.7416 53.8277C44.5901 53.8312 44.4388 53.8145 44.2916 53.7782C44.1594 53.7441 44.0323 53.6927 43.9136 53.6252C43.7993 53.5631 43.6984 53.479 43.6166 53.3778C43.5315 53.2751 43.4659 53.1576 43.4231 53.0313C43.4096 52.9965 43.4096 52.958 43.4231 52.9233C43.4408 52.8867 43.4712 52.8579 43.5086 52.8423L43.6571 52.7748C43.6748 52.767 43.694 52.7629 43.7134 52.7629C43.7327 52.7629 43.7519 52.767 43.7696 52.7748C43.801 52.7929 43.8249 52.8216 43.8371 52.8558V52.8963C43.8788 52.9781 43.9335 53.0525 43.9991 53.1168C44.0662 53.1797 44.142 53.2327 44.2241 53.2743C44.3021 53.3176 44.3852 53.3509 44.4716 53.3733C44.5463 53.3942 44.6235 53.4048 44.7011 53.4048C44.8012 53.4051 44.901 53.393 44.9981 53.3688C45.1009 53.3424 45.1994 53.3015 45.2906 53.2473C45.38 53.1939 45.4568 53.1217 45.5156 53.0358C45.576 52.9453 45.6074 52.8385 45.6056 52.7298C45.6096 52.6263 45.5778 52.5246 45.5156 52.4418C45.4557 52.3543 45.3793 52.2793 45.2906 52.2213C45.1932 52.1587 45.089 52.1074 44.9801 52.0683C44.8708 52.0297 44.7597 51.9967 44.6471 51.9693C44.5011 51.9376 44.3591 51.8893 44.2241 51.8253C44.094 51.7659 43.9729 51.6886 43.8641 51.5958C43.7621 51.5095 43.678 51.404 43.6166 51.2853C43.5517 51.1652 43.5192 51.0303 43.5221 50.8938C43.52 50.7396 43.5491 50.5865 43.6076 50.4438C43.6644 50.3157 43.7471 50.2008 43.8506 50.1063C43.9606 50.0094 44.0893 49.9359 44.2286 49.8903C44.3864 49.8363 44.5524 49.8104 44.7191 49.8138C44.9672 49.8088 45.2128 49.8644 45.4346 49.9758C45.6516 50.1017 45.8292 50.2856 45.9476 50.5068C45.9577 50.5406 45.9577 50.5766 45.9476 50.6103C45.9437 50.6294 45.9357 50.6474 45.924 50.663C45.9123 50.6785 45.8973 50.6913 45.8801 50.7003L45.7451 50.7813C45.6686 50.8308 45.6056 50.8263 45.5651 50.7813L45.5336 50.7453C45.5594 50.7319 45.5824 50.7136 45.6011 50.6913L45.5831 50.6958ZM41.0832 50.6958C41.0006 50.5608 40.8863 50.4481 40.7502 50.3673C40.6329 50.3035 40.5039 50.2638 40.371 50.2507C40.238 50.2375 40.1038 50.2512 39.9762 50.2908C39.8883 50.3167 39.8069 50.3612 39.7377 50.4213C39.6707 50.4761 39.6168 50.5453 39.5802 50.6238C39.5399 50.7032 39.5198 50.7913 39.5217 50.8803C39.5188 50.967 39.5441 51.0522 39.5937 51.1233C39.6408 51.195 39.702 51.2563 39.7737 51.3033C39.8488 51.3532 39.9287 51.3954 40.0122 51.4293C40.0921 51.4637 40.1749 51.4908 40.2597 51.5103L40.3722 51.5418C40.7064 51.6104 41.0168 51.7656 41.2722 51.9918C41.3734 52.083 41.4539 52.1949 41.5082 52.3199C41.5625 52.4449 41.5895 52.58 41.5872 52.7163C41.5903 52.8817 41.5533 53.0454 41.4792 53.1933C41.4069 53.3292 41.3055 53.4476 41.1822 53.5398C41.0464 53.6383 40.894 53.7115 40.7322 53.7557C40.5657 53.8051 40.3928 53.8294 40.2192 53.8277C40.0677 53.8312 39.9164 53.8145 39.7692 53.7782C39.6365 53.7457 39.5092 53.6942 39.3912 53.6252C39.2764 53.5619 39.1742 53.478 39.0897 53.3778C39.0043 53.276 38.9401 53.1582 38.9007 53.0313C38.8921 53.0146 38.8875 52.9961 38.8875 52.9773C38.8875 52.9585 38.8921 52.9399 38.9007 52.9233C38.908 52.9049 38.9189 52.8883 38.9328 52.8744C38.9468 52.8604 38.9634 52.8495 38.9817 52.8423L39.1302 52.7748C39.148 52.767 39.1671 52.7629 39.1865 52.7629C39.2059 52.7629 39.225 52.767 39.2427 52.7748C39.2756 52.7924 39.3011 52.8211 39.3147 52.8558V52.8963C39.3595 52.9773 39.4156 53.0515 39.4812 53.1168C39.5476 53.1786 39.6217 53.2316 39.7017 53.2743C39.7801 53.3168 39.8631 53.3501 39.9492 53.3733C40.0255 53.394 40.1042 53.4046 40.1832 53.4048C40.2818 53.4053 40.3801 53.3932 40.4757 53.3688C40.5802 53.3432 40.6803 53.3023 40.7727 53.2473C40.8607 53.1937 40.936 53.1215 40.9932 53.0358C41.0555 52.9462 41.0871 52.8388 41.0832 52.7298C41.0861 52.6271 41.0562 52.5262 40.9977 52.4418C40.9605 52.3529 40.9088 52.2708 40.8447 52.1988C40.7468 52.1371 40.6427 52.0858 40.5342 52.0458C40.4236 52.0066 40.3109 51.9735 40.1967 51.9468C40.0511 51.9137 39.9093 51.8655 39.7737 51.8028C39.645 51.7434 39.5253 51.6661 39.4182 51.5733C39.3148 51.4872 39.2292 51.3817 39.1662 51.2628C39.1049 51.1415 39.074 51.0072 39.0762 50.8713C39.0718 50.7169 39.101 50.5634 39.1617 50.4213C39.2185 50.2932 39.3013 50.1783 39.4047 50.0838C39.5141 49.986 39.6429 49.9123 39.7827 49.8678C39.9405 49.8138 40.1065 49.7879 40.2732 49.7913C40.5199 49.7863 40.764 49.842 40.9842 49.9533C41.2029 50.0786 41.3821 50.2625 41.5017 50.4843C41.5141 50.5177 41.5141 50.5544 41.5017 50.5878C41.4981 50.6064 41.4906 50.624 41.4797 50.6395C41.4689 50.655 41.4549 50.6681 41.4387 50.6778L41.2992 50.7588C41.2227 50.8083 41.1642 50.8038 41.1192 50.7588L41.0922 50.7228L41.0832 50.6958ZM35.4178 50.2728C35.2518 50.2728 35.0877 50.3081 34.9363 50.3763C34.7838 50.4433 34.645 50.5379 34.5268 50.6553C34.403 50.7775 34.2997 50.9188 34.2209 51.0738C34.1379 51.2366 34.0803 51.4111 34.0499 51.5913H36.7948C36.7478 51.2408 36.5902 50.9145 36.3448 50.6598C36.2248 50.5393 36.0827 50.443 35.9263 50.3763C35.7669 50.3032 35.5932 50.2663 35.4178 50.2683V50.2728ZM35.4583 53.8277C35.2064 53.8239 34.958 53.7672 34.7293 53.6612C34.5023 53.5518 34.299 53.399 34.1309 53.2113C33.9596 53.0278 33.8239 52.8142 33.7304 52.5813C33.6307 52.3386 33.5802 52.0786 33.5819 51.8163C33.5805 51.5486 33.6294 51.283 33.7259 51.0333C33.8192 50.7976 33.9549 50.5811 34.1264 50.3943C34.2889 50.2063 34.4879 50.0532 34.7113 49.9443C34.9355 49.8402 35.1797 49.7865 35.4268 49.7868C35.6662 49.7872 35.9026 49.8394 36.1198 49.9398C36.5604 50.1481 36.9048 50.5167 37.0828 50.9703C37.1885 51.2163 37.2436 51.4811 37.2448 51.7488C37.2489 51.7856 37.2427 51.8228 37.2268 51.8562C37.2109 51.8896 37.1859 51.9178 37.1548 51.9378C37.0863 51.9712 37.0104 51.9867 36.9343 51.9828H34.0544C34.0618 52.1716 34.1077 52.3569 34.1894 52.5273C34.2663 52.694 34.3713 52.8462 34.4998 52.9773C34.6293 53.1043 34.7821 53.2052 34.9498 53.2743C35.1191 53.3475 35.3009 53.3872 35.4853 53.3913C35.7006 53.3919 35.9137 53.3474 36.1108 53.2608C36.2996 53.1745 36.4717 53.0557 36.6193 52.9098C36.6321 52.8932 36.6485 52.8798 36.6672 52.8705C36.6858 52.8611 36.7064 52.8561 36.7273 52.8558C36.7479 52.8566 36.7681 52.8624 36.7861 52.8725C36.8041 52.8827 36.8194 52.897 36.8308 52.9143L36.8938 52.9998C36.9265 53.0378 36.9469 53.0849 36.9523 53.1348C36.9523 53.1798 36.9208 53.2248 36.8578 53.2698C36.676 53.4411 36.4659 53.5797 36.2368 53.6792C35.9974 53.7793 35.7403 53.8298 35.4808 53.8277H35.4583ZM31.6199 49.8903C31.6597 49.8901 31.6981 49.9045 31.7279 49.9308C31.7427 49.9463 31.754 49.9647 31.7609 49.9849C31.7679 50.0051 31.7705 50.0266 31.7684 50.0478V50.1513C31.771 50.1969 31.7565 50.2418 31.7279 50.2773C31.6985 50.3049 31.6602 50.3209 31.6199 50.3223H30.9449V53.5982C30.9458 53.6195 30.9418 53.6407 30.9332 53.6602C30.9247 53.6797 30.9117 53.697 30.8954 53.7107C30.8627 53.738 30.8211 53.7524 30.7784 53.7512H30.6344C30.6134 53.7538 30.5921 53.751 30.5724 53.7432C30.5528 53.7353 30.5354 53.7226 30.5219 53.7062C30.5081 53.692 30.4974 53.6751 30.4904 53.6565C30.4834 53.6379 30.4804 53.6181 30.4814 53.5982V50.3223H29.973C29.8695 50.3223 29.8155 50.2638 29.8155 50.1513V50.0478C29.8125 50.0265 29.8145 50.0047 29.8213 49.9842C29.8282 49.9637 29.8397 49.9451 29.855 49.9298C29.8702 49.9146 29.8888 49.9031 29.9093 49.8962C29.9298 49.8894 29.9516 49.8873 29.973 49.8903H30.4589V49.1479C30.4563 48.9705 30.4837 48.794 30.5399 48.6259C30.5933 48.4825 30.6743 48.351 30.7784 48.2389C30.8875 48.132 31.0178 48.0492 31.1609 47.9959C31.3237 47.9362 31.4961 47.9072 31.6694 47.9104C31.6914 47.9095 31.7132 47.9134 31.7335 47.922C31.7537 47.9306 31.7718 47.9435 31.7864 47.9599C31.8011 47.9763 31.8122 47.9956 31.8192 48.0165C31.8261 48.0373 31.8288 48.0594 31.8269 48.0814V48.2119C31.8278 48.2531 31.8134 48.2932 31.7864 48.3244C31.7566 48.3507 31.7182 48.3651 31.6784 48.3649C31.5768 48.3591 31.4752 48.3745 31.3799 48.4102C31.2846 48.4458 31.1978 48.5009 31.1249 48.5719C31.0532 48.6523 30.9982 48.7463 30.9635 48.8483C30.9287 48.9504 30.9147 49.0583 30.9224 49.1659V49.8903H31.6199ZM24.7036 51.8343C24.7018 52.0421 24.74 52.2484 24.8161 52.4418C24.8848 52.6262 24.9904 52.7946 25.1266 52.9368C25.2518 53.079 25.4049 53.1939 25.5766 53.2743C25.7653 53.3563 25.9692 53.3977 26.1751 53.3958C26.3795 53.3981 26.582 53.3567 26.769 53.2743C26.9407 53.1939 27.0939 53.079 27.219 52.9368C27.3551 52.7937 27.462 52.6256 27.534 52.4418C27.6101 52.2484 27.6483 52.0421 27.6465 51.8343C27.6449 51.4211 27.4837 51.0245 27.1965 50.7273C27.0601 50.5819 26.8947 50.4668 26.711 50.3893C26.5273 50.3118 26.3294 50.2736 26.1301 50.2773C25.9242 50.2754 25.7203 50.3168 25.5316 50.3988C25.3608 50.4805 25.2079 50.5952 25.0816 50.7363C24.9463 50.8808 24.8408 51.0505 24.7711 51.2358C24.7115 51.4278 24.6886 51.6293 24.7036 51.8298V51.8343ZM24.2536 51.8343C24.2524 51.5662 24.3028 51.3003 24.4021 51.0513C24.4927 50.8156 24.6288 50.6 24.8026 50.4168C24.9748 50.2259 25.1847 50.0727 25.4191 49.9668C25.6616 49.8608 25.9238 49.8071 26.1886 49.8093C26.4547 49.8075 26.7183 49.8612 26.9625 49.9668C27.1978 50.071 27.4081 50.2245 27.579 50.4168C27.7556 50.5996 27.8947 50.8151 27.9885 51.0513C28.0842 51.3012 28.133 51.5667 28.1325 51.8343C28.1338 52.1005 28.085 52.3646 27.9885 52.6128C27.8936 52.8497 27.7547 53.0665 27.579 53.2518C27.404 53.4416 27.1929 53.5946 26.958 53.7017C26.7148 53.8057 26.4531 53.8593 26.1886 53.8593C25.924 53.8593 25.6623 53.8057 25.4191 53.7017C25.1873 53.6003 24.9781 53.4537 24.8035 53.2707C24.6289 53.0876 24.4924 52.8716 24.4021 52.6353C24.3 52.3793 24.251 52.1053 24.2581 51.8298L24.2536 51.8343ZM20.3567 50.0838C20.3567 49.9623 20.4107 49.9038 20.5277 49.9038H20.6132C20.7392 49.9038 20.8067 49.9623 20.8067 50.0838V50.4888C20.8426 50.3938 20.8943 50.3056 20.9597 50.2278C21.0275 50.1511 21.1046 50.083 21.1892 50.0253C21.2822 49.9693 21.382 49.9254 21.4862 49.8948C21.5974 49.8635 21.7126 49.8484 21.8282 49.8498C21.9176 49.8502 22.0066 49.8608 22.0937 49.8813C22.1862 49.8988 22.2767 49.926 22.3636 49.9623C22.4393 49.9924 22.5117 50.0301 22.5796 50.0748C22.6027 50.0899 22.6222 50.1098 22.637 50.1331C22.6517 50.1564 22.6613 50.1825 22.6651 50.2098C22.6633 50.2415 22.6541 50.2724 22.6381 50.2998C22.6236 50.3332 22.6055 50.3648 22.5841 50.3943C22.5639 50.4231 22.5413 50.4502 22.5166 50.4753C22.4896 50.4753 22.4716 50.5068 22.4581 50.5068H22.3951C22.3822 50.5121 22.3676 50.5121 22.3546 50.5068C22.2701 50.4569 22.1813 50.4147 22.0892 50.3808C21.9935 50.3416 21.891 50.3217 21.7877 50.3223C21.6479 50.3204 21.51 50.3545 21.3872 50.4213C21.2661 50.4869 21.1603 50.5774 21.0767 50.6868C20.9869 50.8003 20.9169 50.9281 20.8697 51.0648C20.8167 51.2088 20.7908 51.3614 20.7932 51.5148V53.6342C20.7932 53.7287 20.7437 53.7737 20.6447 53.7737H20.4872C20.3882 53.7737 20.3387 53.7287 20.3387 53.6342V50.1153L20.3567 50.0838ZM14.9568 51.7893C14.9546 51.9972 14.9928 52.2035 15.0693 52.3968C15.1387 52.5812 15.2425 52.7507 15.3753 52.8963C15.5017 53.0372 15.6546 53.1518 15.8253 53.2338C15.995 53.3161 16.1811 53.3592 16.3698 53.3598C16.5599 53.3593 16.7475 53.3162 16.9188 53.2338C17.0897 53.1522 17.2427 53.0375 17.3688 52.8963C17.5015 52.7507 17.6054 52.5812 17.6748 52.3968C17.8186 52.0046 17.8186 51.574 17.6748 51.1818C17.6043 50.9979 17.5006 50.8286 17.3688 50.6823C17.2427 50.5411 17.0897 50.4263 16.9188 50.3448C16.7475 50.2624 16.5599 50.2193 16.3698 50.2188C16.1811 50.2194 15.995 50.2624 15.8253 50.3448C15.6546 50.4267 15.5017 50.5414 15.3753 50.6823C15.1039 50.9869 14.9548 51.3813 14.9568 51.7893ZM14.5068 50.0433C14.5068 49.9353 14.5653 49.8858 14.6733 49.8858H14.7948C14.9118 49.8858 14.9703 49.9353 14.9703 50.0433V50.5293C15.0139 50.4549 15.0636 50.3841 15.1188 50.3178C15.1972 50.2234 15.288 50.1402 15.3888 50.0703C15.5172 49.9858 15.6564 49.9192 15.8028 49.8723C15.9938 49.8143 16.1927 49.787 16.3923 49.7913C16.6391 49.789 16.8835 49.8412 17.1078 49.9443C17.3287 50.0551 17.5259 50.208 17.6883 50.3943C17.8576 50.5801 17.9918 50.7951 18.0842 51.0288C18.2294 51.3961 18.2692 51.7966 18.1992 52.1854C18.1293 52.5741 17.9523 52.9356 17.6883 53.2293C17.5277 53.4176 17.3301 53.5707 17.1078 53.6792C16.8845 53.7858 16.6397 53.8397 16.3923 53.8367C16.2245 53.8391 16.0574 53.8148 15.8973 53.7647C15.7549 53.7242 15.6208 53.6587 15.5013 53.5712C15.3853 53.4897 15.2809 53.3928 15.1908 53.2833C15.1047 53.173 15.0308 53.0538 14.9703 52.9278V55.1462C14.9709 55.167 14.9672 55.1878 14.9594 55.2071C14.9517 55.2264 14.9401 55.244 14.9253 55.2587C14.8898 55.2873 14.8449 55.3018 14.7993 55.2992H14.7003C14.6534 55.3016 14.6071 55.2873 14.5698 55.2587C14.5551 55.244 14.5435 55.2264 14.5357 55.2071C14.528 55.1878 14.5243 55.167 14.5248 55.1462L14.5068 50.0433Z" fill="white"/>
</svg>
