<svg width="209" height="204" viewBox="0 0 209 204" fill="none" xmlns="http://www.w3.org/2000/svg">
<path fill-rule="evenodd" clip-rule="evenodd" d="M52.0326 9.62891H156.098L208.131 99.7607L156.098 189.881H52.0326L0 99.7607L52.0326 9.62891ZM52.7161 10.8127L1.36695 99.7606L52.7161 188.697H155.414L206.764 99.7606L155.414 10.8127H52.7161Z" fill="white"/>
<path fill-rule="evenodd" clip-rule="evenodd" d="M155.755 204H52.373V202.824H155.755V204Z" fill="white"/>
<path d="M121.203 0H86.9414V20.9485H121.203V0Z" fill="white"/>
<path d="M144.691 94.014L155.171 68.0505L165.707 94.014H144.691ZM172.521 110.791H173.882L155.666 66.6112H154.665L136.517 110.791H137.81L144.197 95.0485H166.157L172.521 110.791ZM125.295 110.791V67.983H140.362V66.8586H109.125V67.983H124.181V110.791H125.295ZM86.3213 110.285C82.0447 110.314 77.8559 109.072 74.2861 106.717C70.7163 104.362 67.9264 100.999 66.2702 97.0565C64.6141 93.1135 64.1663 88.7675 64.9836 84.5697C65.801 80.3718 67.8467 76.5113 70.8613 73.4778C73.8758 70.4443 77.7234 68.3744 81.916 67.5307C86.1087 66.6871 90.4574 67.1076 94.4107 68.739C98.364 70.3704 101.744 73.1391 104.121 76.6941C106.499 80.249 107.767 84.43 107.764 88.7066C107.768 94.4071 105.514 99.877 101.495 103.92C97.4773 107.964 92.0216 110.252 86.3213 110.285ZM86.3213 66.0377C81.8373 66.0355 77.4534 67.3631 73.724 69.8527C69.9947 72.3422 67.0874 75.8818 65.3699 80.0238C63.6525 84.1658 63.2019 88.7241 64.0753 93.1222C64.9487 97.5203 67.1069 101.561 70.2767 104.732C73.4466 107.903 77.4858 110.064 81.8834 110.939C86.281 111.815 90.8396 111.366 94.9824 109.651C99.1253 107.936 102.666 105.03 105.158 101.302C107.649 97.5738 108.979 93.1906 108.979 88.7066C108.976 82.6973 106.588 76.9348 102.34 72.6846C98.0919 68.4343 92.3306 66.0437 86.3213 66.0377ZM56.3435 101.042C56.3435 106.484 51.9694 110.285 45.65 110.285C41.5007 110.285 37.9812 108.429 35.1139 104.19L34.248 104.764C35.3792 106.769 37.0272 108.435 39.0206 109.588C41.0139 110.741 43.2798 111.339 45.5825 111.319C52.4641 111.319 57.5579 107.159 57.5579 100.918C57.5579 95.2959 54.758 91.023 46.156 88.2231C39.1956 85.9742 36.5419 82.6009 36.5419 76.8212C36.5477 75.5236 36.8112 74.24 37.3173 73.0451C37.8234 71.8501 38.5618 70.7677 39.4898 69.8606C40.4178 68.9536 41.5168 68.24 42.7229 67.7613C43.9291 67.2826 45.2183 67.0484 46.5158 67.0722C51.8906 67.0722 54.8367 69.6585 56.4109 73.3804L57.5354 72.8069C55.2865 67.8593 51.1485 65.9928 46.6282 65.9928C45.1474 65.9777 43.6785 66.2583 42.3074 66.8181C40.9364 67.3778 39.6908 68.2055 38.6437 69.2527C37.5965 70.2998 36.7688 71.5454 36.209 72.9164C35.6493 74.2875 35.3687 75.7564 35.3837 77.2373C35.3837 83.1856 38.6784 87.0537 45.5712 89.2126C53.7122 91.8551 56.3435 95.9481 56.3435 101.042Z" fill="white"/>
<path fill-rule="evenodd" clip-rule="evenodd" d="M154.665 66.6112H155.666L173.882 110.791H172.521L166.157 95.0485H144.197L137.81 110.791H136.517L154.665 66.6112ZM155.171 68.0505L144.691 94.014H165.707L155.171 68.0505ZM109.125 67.983V66.8586H140.362V67.983H125.295V110.791H124.181V67.983H109.125ZM86.3213 66.0377C81.8373 66.0355 77.4534 67.3631 73.724 69.8527C69.9947 72.3422 67.0874 75.8818 65.3699 80.0238C63.6525 84.1658 63.2019 88.7241 64.0753 93.1222C64.9487 97.5203 67.1069 101.561 70.2767 104.732C73.4466 107.903 77.4858 110.064 81.8834 110.939C86.281 111.815 90.8396 111.366 94.9824 109.651C99.1253 107.936 102.666 105.03 105.158 101.302C107.649 97.5738 108.979 93.1906 108.979 88.7066C108.976 82.6973 106.588 76.9348 102.34 72.6846C98.0919 68.4343 92.3306 66.0437 86.3213 66.0377ZM35.1139 104.19C37.9813 108.429 41.5008 110.285 45.65 110.285C51.9694 110.285 56.3435 106.484 56.3435 101.042C56.3435 95.9481 53.7122 91.8551 45.5712 89.2126C38.6784 87.0537 35.3837 83.1856 35.3837 77.2373C35.3687 75.7564 35.6493 74.2875 36.209 72.9164C36.7688 71.5454 37.5965 70.2998 38.6437 69.2527C39.6908 68.2055 40.9364 67.3778 42.3074 66.8181C43.6785 66.2583 45.1474 65.9777 46.6282 65.9928C51.1485 65.9928 55.2865 67.8593 57.5354 72.8069L56.4109 73.3804C56.3046 73.1291 56.1921 72.883 56.073 72.6425C54.4278 69.321 51.5278 67.0722 46.5158 67.0722C45.2183 67.0484 43.9291 67.2826 42.7229 67.7613C41.5168 68.24 40.4178 68.9536 39.4898 69.8606C38.5618 70.7677 37.8234 71.8501 37.3173 73.0451C36.8112 74.24 36.5477 75.5236 36.5419 76.8212C36.5419 82.6009 39.1956 85.9742 46.156 88.2231C54.758 91.023 57.5579 95.2959 57.5579 100.918C57.5579 107.159 52.4641 111.319 45.5825 111.319C43.2798 111.339 41.0139 110.741 39.0206 109.588C37.0272 108.435 35.3792 106.769 34.248 104.764L35.1139 104.19C35.1139 104.19 35.1139 104.19 35.1139 104.19ZM107.764 88.7066C107.767 84.43 106.499 80.249 104.121 76.6941C101.744 73.1391 98.364 70.3704 94.4107 68.739C90.4574 67.1076 86.1087 66.6871 81.916 67.5307C77.7234 68.3744 73.8758 70.4443 70.8613 73.4778C67.8467 76.5113 65.801 80.3718 64.9836 84.5697C64.1663 88.7675 64.6141 93.1135 66.2702 97.0565C67.9264 100.999 70.7163 104.362 74.2861 106.717C77.8559 109.072 82.0447 110.314 86.3213 110.285C92.0216 110.252 97.4773 107.964 101.495 103.92C105.514 99.877 107.768 94.4071 107.764 88.7066Z" fill="white"/>
<path d="M170.712 120.117C170.712 119.869 170.835 119.757 171.083 119.757H171.487C171.582 119.752 171.675 119.784 171.746 119.847C171.781 119.882 171.807 119.925 171.825 119.971C171.842 120.018 171.85 120.067 171.847 120.117V133.936C171.853 133.984 171.848 134.033 171.831 134.079C171.815 134.125 171.789 134.166 171.754 134.2C171.719 134.233 171.677 134.259 171.631 134.273C171.584 134.288 171.535 134.292 171.487 134.285H171.083C170.835 134.285 170.712 134.172 170.712 133.936V120.117ZM163.639 129.54C163.64 129.023 163.553 128.509 163.38 128.022C163.218 127.56 162.97 127.132 162.649 126.762C162.341 126.402 161.957 126.114 161.525 125.919C161.08 125.704 160.591 125.596 160.097 125.604C159.595 125.596 159.099 125.704 158.646 125.919C158.216 126.118 157.833 126.405 157.522 126.762C157.202 127.131 156.95 127.553 156.78 128.01C156.597 128.496 156.506 129.01 156.51 129.528C156.507 130.047 156.598 130.561 156.78 131.046C156.95 131.503 157.206 131.922 157.533 132.283C157.848 132.634 158.23 132.917 158.657 133.115C159.109 133.321 159.601 133.425 160.097 133.419C160.576 133.423 161.05 133.325 161.489 133.131C161.927 132.937 162.319 132.652 162.638 132.295C162.961 131.934 163.209 131.514 163.369 131.058C163.551 130.572 163.643 130.058 163.639 129.54ZM164.763 133.948C164.766 133.995 164.759 134.043 164.742 134.088C164.724 134.133 164.697 134.173 164.662 134.206C164.581 134.276 164.477 134.312 164.37 134.307H164.055C164.002 134.313 163.949 134.306 163.899 134.289C163.85 134.271 163.805 134.242 163.768 134.204C163.731 134.166 163.703 134.12 163.687 134.07C163.67 134.019 163.665 133.966 163.673 133.914V132.216C163.56 132.57 163.384 132.901 163.155 133.194C162.927 133.477 162.653 133.72 162.346 133.914C162.026 134.115 161.677 134.267 161.311 134.364C160.919 134.469 160.514 134.522 160.108 134.521C159.469 134.523 158.836 134.389 158.253 134.127C157.686 133.859 157.18 133.476 156.768 133.003C156.338 132.542 155.998 132.004 155.768 131.418C155.527 130.797 155.405 130.137 155.408 129.472C155.406 128.803 155.528 128.14 155.768 127.516C155.993 126.925 156.329 126.383 156.757 125.919C157.167 125.443 157.673 125.06 158.241 124.794C158.832 124.53 159.472 124.396 160.119 124.401C160.534 124.399 160.946 124.455 161.345 124.57C161.719 124.674 162.075 124.833 162.402 125.042C162.706 125.236 162.976 125.479 163.2 125.762C163.418 126.032 163.582 126.341 163.684 126.672V125.008C163.686 124.899 163.721 124.793 163.785 124.705C163.821 124.667 163.865 124.639 163.914 124.621C163.962 124.604 164.015 124.597 164.066 124.603H164.347C164.451 124.599 164.552 124.635 164.628 124.705C164.669 124.743 164.7 124.791 164.719 124.843C164.739 124.896 164.746 124.952 164.741 125.008L164.763 133.948ZM143.241 133.948C143.247 133.996 143.242 134.044 143.225 134.09C143.209 134.136 143.183 134.177 143.148 134.211C143.113 134.245 143.071 134.27 143.025 134.285C142.978 134.299 142.929 134.303 142.881 134.296H142.477C142.229 134.296 142.106 134.184 142.106 133.948V124.952C142.106 124.87 142.133 124.791 142.184 124.727C142.214 124.698 142.249 124.675 142.288 124.66C142.326 124.644 142.368 124.636 142.409 124.637H142.994C143.045 124.62 143.1 124.62 143.151 124.637C143.19 124.681 143.213 124.736 143.219 124.794V126.121C143.382 125.874 143.574 125.647 143.792 125.447C144.013 125.238 144.258 125.056 144.523 124.907C145.068 124.574 145.695 124.403 146.334 124.412C146.853 124.394 147.37 124.485 147.852 124.679C148.334 124.873 148.771 125.165 149.133 125.537C149.867 126.31 150.271 127.338 150.258 128.404V133.768C150.262 133.821 150.256 133.874 150.238 133.924C150.221 133.975 150.193 134.021 150.157 134.06C150.08 134.129 149.979 134.166 149.876 134.161H149.471C149.422 134.165 149.373 134.159 149.327 134.143C149.281 134.128 149.238 134.103 149.201 134.071C149.14 133.987 149.112 133.883 149.122 133.779V128.393C149.12 128.005 149.036 127.621 148.875 127.268C148.726 126.923 148.512 126.61 148.245 126.346C147.978 126.086 147.665 125.877 147.323 125.728C146.967 125.579 146.585 125.503 146.199 125.503C145.812 125.501 145.43 125.578 145.074 125.728C144.725 125.86 144.404 126.059 144.13 126.313C143.853 126.563 143.628 126.865 143.466 127.201C143.298 127.553 143.202 127.935 143.185 128.325L143.241 133.948ZM128.309 129.528C128.31 130.047 128.405 130.562 128.59 131.046C128.77 131.503 129.033 131.922 129.366 132.283C129.708 132.65 130.123 132.942 130.583 133.141C131.044 133.341 131.54 133.444 132.042 133.444C132.544 133.444 133.04 133.341 133.5 133.141C133.961 132.942 134.375 132.65 134.718 132.283C135.055 131.925 135.318 131.505 135.494 131.046C135.688 130.564 135.787 130.049 135.786 129.528C135.788 129.008 135.689 128.493 135.494 128.01C135.315 127.55 135.052 127.126 134.718 126.762C134.398 126.414 134.017 126.129 133.594 125.919C133.12 125.719 132.612 125.615 132.098 125.615C131.584 125.615 131.076 125.719 130.602 125.919C130.179 126.129 129.798 126.414 129.478 126.762C129.148 127.129 128.885 127.552 128.702 128.01C128.475 128.483 128.338 128.994 128.297 129.517L128.309 129.528ZM127.184 129.528C127.181 128.858 127.307 128.194 127.555 127.572C127.786 126.982 128.13 126.444 128.567 125.986C128.991 125.507 129.513 125.124 130.096 124.862C131.005 124.473 132.01 124.372 132.978 124.573C133.945 124.774 134.827 125.268 135.505 125.986C135.939 126.447 136.282 126.985 136.517 127.572C136.765 128.194 136.891 128.858 136.888 129.528C136.896 130.844 136.397 132.113 135.494 133.07C135.059 133.542 134.535 133.924 133.953 134.195C133.343 134.459 132.684 134.593 132.019 134.588C131.362 134.592 130.711 134.458 130.108 134.195C129.524 133.927 129 133.545 128.567 133.07C128.135 132.604 127.793 132.063 127.555 131.474C127.304 130.852 127.178 130.187 127.184 129.517V129.528ZM120.437 121.927C120.437 121.808 120.46 121.689 120.505 121.579C120.553 121.469 120.621 121.369 120.707 121.286C120.783 121.197 120.88 121.127 120.988 121.084C121.099 121.039 121.218 121.016 121.337 121.016C121.457 121.015 121.576 121.037 121.687 121.083C121.799 121.128 121.9 121.195 121.984 121.28C122.069 121.365 122.136 121.466 122.182 121.577C122.227 121.688 122.249 121.807 122.248 121.927C122.249 122.05 122.226 122.173 122.18 122.287C122.137 122.397 122.072 122.496 121.989 122.579C121.906 122.662 121.806 122.728 121.697 122.77C121.582 122.815 121.46 122.838 121.337 122.838C121.218 122.839 121.099 122.816 120.988 122.77C120.883 122.727 120.787 122.662 120.707 122.579C120.624 122.494 120.555 122.395 120.505 122.287C120.473 122.166 120.465 122.04 120.482 121.916L120.437 121.927ZM120.786 125.053C120.78 125.003 120.786 124.953 120.803 124.906C120.82 124.859 120.847 124.817 120.883 124.782C120.919 124.747 120.962 124.721 121.01 124.706C121.057 124.69 121.108 124.686 121.157 124.693H121.562C121.61 124.692 121.657 124.701 121.701 124.718C121.746 124.735 121.786 124.761 121.821 124.794C121.855 124.828 121.882 124.868 121.899 124.913C121.916 124.958 121.924 125.005 121.922 125.053V133.948C121.927 133.996 121.922 134.044 121.906 134.09C121.89 134.136 121.863 134.177 121.828 134.211C121.793 134.245 121.751 134.27 121.705 134.285C121.659 134.299 121.61 134.303 121.562 134.296H121.18C120.932 134.296 120.809 134.184 120.809 133.948L120.786 125.053ZM113.904 126.684C113.699 126.349 113.418 126.068 113.084 125.863C112.721 125.656 112.309 125.551 111.892 125.559C111.636 125.555 111.382 125.593 111.138 125.672C110.921 125.741 110.718 125.852 110.542 125.998C110.378 126.138 110.244 126.31 110.149 126.504C110.057 126.705 110.011 126.924 110.014 127.145C110.011 127.359 110.07 127.57 110.183 127.752C110.303 127.929 110.456 128.081 110.632 128.202C110.82 128.326 111.02 128.432 111.228 128.516C111.428 128.601 111.635 128.668 111.847 128.719L112.128 128.798C112.983 128.96 113.779 129.348 114.433 129.922C114.687 130.149 114.89 130.429 115.028 130.741C115.165 131.053 115.235 131.391 115.231 131.732C115.239 132.146 115.147 132.555 114.961 132.924C114.773 133.262 114.517 133.557 114.208 133.79C113.872 134.041 113.49 134.224 113.084 134.33C112.668 134.453 112.236 134.514 111.802 134.51C111.423 134.518 111.045 134.477 110.677 134.386C110.347 134.301 110.029 134.172 109.733 134.004C109.447 133.848 109.195 133.638 108.991 133.385C108.778 133.129 108.614 132.835 108.507 132.519C108.473 132.433 108.473 132.336 108.507 132.25C108.551 132.158 108.627 132.086 108.721 132.047L109.092 131.879C109.136 131.859 109.184 131.849 109.232 131.849C109.281 131.849 109.329 131.859 109.373 131.879C109.451 131.924 109.511 131.996 109.542 132.081V132.182C109.646 132.387 109.782 132.573 109.946 132.733C110.114 132.89 110.303 133.023 110.509 133.127C110.703 133.235 110.911 133.318 111.127 133.374C111.314 133.426 111.507 133.453 111.701 133.453C111.951 133.454 112.2 133.423 112.443 133.363C112.699 133.297 112.946 133.195 113.174 133.059C113.397 132.926 113.589 132.745 113.736 132.531C113.887 132.305 113.965 132.038 113.961 131.766C113.971 131.507 113.891 131.253 113.736 131.046C113.586 130.828 113.395 130.641 113.174 130.495C112.93 130.339 112.67 130.211 112.398 130.113C112.125 130.017 111.847 129.934 111.566 129.866C111.201 129.787 110.846 129.666 110.509 129.506C110.184 129.357 109.881 129.164 109.609 128.932C109.354 128.717 109.144 128.453 108.991 128.157C108.828 127.856 108.747 127.519 108.754 127.178C108.749 126.793 108.822 126.41 108.968 126.054C109.11 125.734 109.317 125.447 109.575 125.211C109.85 124.968 110.172 124.785 110.52 124.671C110.914 124.536 111.329 124.471 111.745 124.48C112.365 124.467 112.979 124.606 113.533 124.884C114.076 125.199 114.52 125.658 114.815 126.211C114.841 126.296 114.841 126.386 114.815 126.47C114.806 126.518 114.786 126.563 114.756 126.601C114.727 126.64 114.69 126.672 114.647 126.695L114.309 126.897C114.118 127.021 113.961 127.01 113.859 126.897L113.781 126.807C113.845 126.774 113.903 126.728 113.949 126.672L113.904 126.684ZM102.66 126.684C102.454 126.346 102.168 126.065 101.828 125.863C101.535 125.703 101.212 125.604 100.88 125.571C100.548 125.538 100.213 125.572 99.8938 125.672C99.674 125.736 99.4708 125.847 99.2978 125.998C99.1303 126.135 98.9958 126.308 98.9043 126.504C98.8035 126.702 98.7532 126.922 98.7581 127.145C98.7508 127.361 98.8139 127.574 98.938 127.752C99.0555 127.931 99.2086 128.084 99.3878 128.202C99.5754 128.326 99.7751 128.432 99.9837 128.516C100.183 128.602 100.39 128.67 100.602 128.719L100.883 128.798C101.718 128.969 102.494 129.357 103.132 129.922C103.385 130.15 103.586 130.43 103.722 130.742C103.858 131.054 103.925 131.392 103.919 131.732C103.927 132.146 103.835 132.555 103.649 132.924C103.469 133.264 103.216 133.56 102.907 133.79C102.568 134.036 102.187 134.219 101.783 134.33C101.367 134.453 100.935 134.514 100.501 134.51C100.122 134.518 99.7443 134.477 99.3765 134.386C99.0449 134.305 98.7268 134.176 98.432 134.004C98.1451 133.845 97.8898 133.636 97.6786 133.385C97.4652 133.131 97.3046 132.837 97.2064 132.519C97.1847 132.478 97.1734 132.432 97.1734 132.385C97.1734 132.338 97.1847 132.291 97.2064 132.25C97.2245 132.204 97.2518 132.162 97.2866 132.127C97.3214 132.093 97.363 132.065 97.4088 132.047L97.7798 131.879C97.8241 131.859 97.872 131.849 97.9204 131.849C97.9688 131.849 98.0167 131.859 98.0609 131.879C98.143 131.923 98.2067 131.994 98.2409 132.081V132.182C98.3528 132.384 98.4929 132.57 98.6569 132.733C98.8227 132.888 99.0079 133.02 99.2079 133.127C99.4036 133.233 99.6112 133.316 99.8263 133.374C100.017 133.426 100.214 133.452 100.411 133.453C100.658 133.454 100.903 133.424 101.142 133.363C101.403 133.299 101.653 133.197 101.884 133.059C102.104 132.925 102.292 132.745 102.435 132.531C102.591 132.307 102.67 132.039 102.66 131.766C102.667 131.51 102.592 131.257 102.446 131.046C102.353 130.824 102.224 130.619 102.064 130.439C101.819 130.285 101.559 130.157 101.288 130.057C101.012 129.959 100.73 129.876 100.445 129.81C100.081 129.727 99.7265 129.606 99.3878 129.45C99.0662 129.301 98.7671 129.108 98.4995 128.876C98.2411 128.661 98.0272 128.397 97.8698 128.1C97.7165 127.797 97.6393 127.462 97.6449 127.122C97.6338 126.736 97.7067 126.353 97.8585 125.998C98.0004 125.678 98.2072 125.39 98.4657 125.154C98.739 124.91 99.0609 124.726 99.4103 124.615C99.8045 124.479 100.219 124.415 100.636 124.423C101.252 124.411 101.862 124.55 102.413 124.828C102.959 125.141 103.407 125.601 103.706 126.155C103.737 126.238 103.737 126.33 103.706 126.414C103.697 126.46 103.678 126.504 103.651 126.543C103.624 126.582 103.589 126.614 103.548 126.639L103.2 126.841C103.009 126.965 102.862 126.953 102.75 126.841L102.682 126.751L102.66 126.684ZM88.5031 125.627C88.0883 125.626 87.6781 125.715 87.3 125.885C86.9188 126.052 86.5719 126.289 86.2767 126.582C85.9674 126.888 85.7092 127.241 85.5121 127.628C85.3049 128.035 85.1608 128.471 85.0848 128.921H91.9439C91.8265 128.045 91.4326 127.23 90.8195 126.594C90.5197 126.292 90.1646 126.052 89.7738 125.885C89.3753 125.703 88.9414 125.61 88.5031 125.615V125.627ZM88.6043 134.51C87.9747 134.5 87.3541 134.358 86.7827 134.094C86.2155 133.82 85.7073 133.438 85.2872 132.969C84.8594 132.511 84.5201 131.977 84.2864 131.395C84.0373 130.789 83.9112 130.139 83.9154 129.483C83.912 128.815 84.034 128.151 84.2752 127.527C84.5084 126.938 84.8476 126.397 85.276 125.93C85.6821 125.46 86.1794 125.078 86.7377 124.806C87.2978 124.546 87.9081 124.411 88.5256 124.412C89.1237 124.413 89.7145 124.543 90.2573 124.794C91.3581 125.315 92.2188 126.236 92.6636 127.369C92.9278 127.984 93.0655 128.646 93.0684 129.315C93.0788 129.407 93.0632 129.5 93.0235 129.583C92.9837 129.667 92.9214 129.737 92.8435 129.787C92.6723 129.871 92.4827 129.909 92.2925 129.899H85.0961C85.1146 130.371 85.2294 130.834 85.4334 131.26C85.6257 131.677 85.8881 132.057 86.2093 132.385C86.5328 132.702 86.9146 132.954 87.3337 133.127C87.7566 133.31 88.2111 133.409 88.6718 133.419C89.2098 133.421 89.7422 133.309 90.2348 133.093C90.7065 132.877 91.1366 132.581 91.5054 132.216C91.5374 132.175 91.5783 132.141 91.625 132.118C91.6717 132.094 91.7231 132.082 91.7753 132.081C91.8269 132.083 91.8772 132.097 91.9222 132.123C91.9672 132.148 92.0055 132.184 92.0339 132.227L92.1913 132.441C92.2731 132.536 92.3241 132.653 92.3375 132.778C92.3375 132.891 92.2588 133.003 92.1014 133.115C91.6472 133.544 91.1222 133.89 90.5496 134.139C89.9514 134.389 89.3088 134.515 88.6606 134.51H88.6043ZM79.0128 124.671C79.1121 124.67 79.2082 124.706 79.2826 124.772C79.3196 124.811 79.3477 124.857 79.3652 124.907C79.3826 124.958 79.389 125.011 79.3839 125.064V125.323C79.3902 125.437 79.3542 125.549 79.2826 125.638C79.2093 125.707 79.1134 125.747 79.0128 125.75H77.3261V133.936C77.3283 133.989 77.3183 134.042 77.2969 134.091C77.2754 134.14 77.2431 134.183 77.2024 134.217C77.1205 134.286 77.0166 134.321 76.9101 134.319H76.5502C76.4977 134.325 76.4444 134.318 76.3953 134.298C76.3461 134.279 76.3028 134.247 76.2691 134.206C76.2346 134.171 76.2077 134.128 76.1903 134.082C76.1729 134.035 76.1653 133.986 76.1679 133.936V125.75H74.8973C74.6387 125.75 74.5037 125.604 74.5037 125.323V125.064C74.4963 125.011 74.5013 124.956 74.5184 124.905C74.5355 124.854 74.5643 124.808 74.6025 124.77C74.6406 124.731 74.6871 124.703 74.7383 124.685C74.7894 124.668 74.8439 124.663 74.8973 124.671H76.1117V122.815C76.105 122.372 76.1735 121.931 76.3141 121.511C76.4474 121.153 76.6499 120.824 76.9101 120.544C77.1825 120.277 77.5082 120.07 77.8658 119.937C78.2726 119.788 78.7034 119.715 79.1365 119.723C79.1913 119.721 79.246 119.731 79.2965 119.752C79.3471 119.774 79.3923 119.806 79.4288 119.847C79.4654 119.888 79.4933 119.936 79.5107 119.988C79.5281 120.04 79.5347 120.096 79.53 120.151V120.477C79.5323 120.58 79.4962 120.68 79.4288 120.758C79.3543 120.823 79.2583 120.859 79.159 120.859C78.9052 120.845 78.6511 120.883 78.413 120.972C78.1749 121.061 77.958 121.199 77.7759 121.376C77.5965 121.577 77.4593 121.812 77.3724 122.067C77.2855 122.322 77.2506 122.592 77.2699 122.86V124.671H79.0128ZM61.73 129.528C61.7255 130.048 61.8209 130.563 62.0111 131.046C62.1828 131.507 62.4468 131.928 62.787 132.283C63.0998 132.639 63.4826 132.926 63.9114 133.127C64.3831 133.332 64.8927 133.435 65.407 133.43C65.9177 133.436 66.4238 133.333 66.8912 133.127C67.3201 132.926 67.7029 132.639 68.0157 132.283C68.3556 131.926 68.6229 131.506 68.8028 131.046C68.993 130.563 69.0884 130.048 69.0839 129.528C69.0799 128.496 68.677 127.505 67.9594 126.762C67.6185 126.399 67.2052 126.111 66.7462 125.918C66.2871 125.724 65.7926 125.629 65.2945 125.638C64.7802 125.633 64.2707 125.736 63.799 125.941C63.3722 126.146 62.9901 126.432 62.6745 126.785C62.3365 127.146 62.0728 127.57 61.8987 128.033C61.7498 128.513 61.6926 129.016 61.73 129.517V129.528ZM60.6056 129.528C60.6025 128.858 60.7285 128.194 60.9766 127.572C61.203 126.983 61.5431 126.444 61.9774 125.986C62.4078 125.509 62.9323 125.126 63.5179 124.862C64.124 124.597 64.7792 124.463 65.4407 124.468C66.1057 124.464 66.7644 124.598 67.3747 124.862C67.9627 125.122 68.488 125.506 68.9152 125.986C69.3564 126.443 69.7041 126.982 69.9385 127.572C70.1776 128.196 70.2996 128.86 70.2983 129.528C70.3016 130.194 70.1795 130.854 69.9385 131.474C69.7013 132.066 69.3541 132.608 68.9152 133.07C68.478 133.545 67.9504 133.927 67.3635 134.195C66.7557 134.455 66.1016 134.589 65.4407 134.589C64.7797 134.589 64.1256 134.455 63.5179 134.195C62.9388 133.941 62.4159 133.575 61.9796 133.118C61.5433 132.66 61.2024 132.12 60.9766 131.53C60.7216 130.89 60.5992 130.206 60.6168 129.517L60.6056 129.528ZM50.8678 125.154C50.8678 124.851 51.0028 124.705 51.2951 124.705H51.5088C51.8236 124.705 51.9923 124.851 51.9923 125.154V126.166C52.082 125.929 52.2113 125.708 52.3746 125.514C52.544 125.322 52.7366 125.152 52.9481 125.008C53.1804 124.868 53.4298 124.758 53.6902 124.682C53.9682 124.604 54.256 124.566 54.5448 124.57C54.7682 124.571 54.9908 124.597 55.2082 124.648C55.4395 124.692 55.6657 124.76 55.8829 124.851C56.0719 124.926 56.2527 125.02 56.4226 125.132C56.4802 125.17 56.529 125.219 56.5659 125.277C56.6027 125.336 56.6267 125.401 56.6363 125.469C56.6317 125.548 56.6086 125.625 56.5688 125.694C56.5324 125.777 56.4871 125.857 56.4338 125.93C56.3833 126.002 56.3269 126.07 56.2652 126.133C56.1977 126.133 56.1527 126.211 56.119 126.211H55.9616C55.9291 126.224 55.8928 126.224 55.8604 126.211C55.6492 126.086 55.4272 125.981 55.197 125.896C54.9579 125.798 54.7019 125.749 54.4436 125.75C54.0943 125.745 53.7496 125.831 53.4428 125.998C53.1403 126.162 52.8759 126.388 52.6669 126.661C52.4427 126.945 52.2678 127.264 52.1497 127.606C52.0173 127.965 51.9525 128.347 51.9585 128.73V134.026C51.9585 134.262 51.8349 134.375 51.5875 134.375H51.1939C50.9465 134.375 50.8229 134.262 50.8229 134.026V125.233L50.8678 125.154ZM37.3744 129.416C37.3688 129.935 37.4642 130.451 37.6556 130.934C37.8289 131.395 38.0884 131.818 38.4202 132.182C38.7361 132.534 39.1182 132.821 39.5446 133.025C39.9687 133.231 40.4338 133.339 40.9052 133.34C41.3803 133.339 41.849 133.231 42.277 133.025C42.7041 132.822 43.0864 132.535 43.4015 132.182C43.7333 131.818 43.9927 131.395 44.1661 130.934C44.5256 129.954 44.5256 128.878 44.1661 127.898C43.9901 127.438 43.7309 127.015 43.4015 126.65C43.0864 126.297 42.7041 126.01 42.277 125.806C41.849 125.6 41.3803 125.493 40.9052 125.492C40.4338 125.493 39.9687 125.601 39.5446 125.806C39.1182 126.011 38.7361 126.298 38.4202 126.65C37.7419 127.411 37.3693 128.396 37.3744 129.416ZM36.25 125.053C36.25 124.783 36.3962 124.66 36.666 124.66H36.9696C37.262 124.66 37.4082 124.783 37.4082 125.053V126.268C37.5172 126.081 37.6413 125.905 37.7793 125.739C37.975 125.503 38.202 125.295 38.4539 125.121C38.7746 124.909 39.1227 124.743 39.4884 124.626C39.9656 124.481 40.4628 124.413 40.9614 124.423C41.5783 124.417 42.1888 124.548 42.7493 124.806C43.3014 125.083 43.7941 125.465 44.1999 125.93C44.623 126.394 44.9583 126.932 45.1894 127.516C45.552 128.434 45.6515 129.434 45.4767 130.406C45.3019 131.377 44.8597 132.28 44.1999 133.014C43.7988 133.485 43.305 133.868 42.7493 134.139C42.1914 134.405 41.5797 134.54 40.9614 134.532C40.5422 134.538 40.1247 134.477 39.7245 134.352C39.3687 134.251 39.0337 134.087 38.735 133.869C38.4452 133.665 38.1842 133.423 37.9592 133.149C37.7441 132.874 37.5594 132.576 37.4082 132.261V137.804C37.4096 137.856 37.4003 137.908 37.381 137.957C37.3616 138.005 37.3326 138.049 37.2957 138.085C37.2069 138.157 37.0947 138.193 36.9809 138.187H36.7335C36.6163 138.193 36.5007 138.157 36.4074 138.085C36.3705 138.049 36.3415 138.005 36.3222 137.957C36.3029 137.908 36.2936 137.856 36.295 137.804L36.25 125.053Z" fill="white"/>
</svg>
