<svg width="77" height="70" viewBox="0 0 77 70" fill="none" xmlns="http://www.w3.org/2000/svg">
<path fill-rule="evenodd" clip-rule="evenodd" d="M42.341 36.7863C42.4413 36.6058 42.5216 36.4253 42.5416 36.1846C42.5817 35.964 42.5817 35.7433 42.5416 35.5428C42.5015 35.3422 42.4213 35.1617 42.3009 34.9811C42.1405 34.7605 41.9599 34.6001 41.7594 34.4998C41.5588 34.3995 41.3181 34.3594 41.0373 34.3594H39.6333V37.4482H41.0373C41.1376 37.4482 41.2178 37.4482 41.2981 37.4281C41.3783 37.4081 41.4585 37.4081 41.5387 37.368L41.7594 37.2877L41.7995 37.2677C41.8396 37.2476 41.8797 37.2276 41.9198 37.2075C42.0803 37.0872 42.2207 36.9468 42.341 36.7863Z" fill="white"/>
<path fill-rule="evenodd" clip-rule="evenodd" d="M76.2779 26.4957L50.2235 22.7851C49.0802 20.639 38.2092 0.160458 37.9885 0L26.2751 22.7851L0 26.8567C6.19771 32.7937 12.4556 38.6905 18.7135 44.5673L14.8023 70L38.3095 58.2264L61.937 69.7794C62.0172 69.6991 57.9456 46.7536 57.5444 44.5874L76.2779 26.4957ZM20.3381 39.0115C20.1977 39.3324 19.9971 39.5731 19.7364 39.7536C19.4756 39.914 19.1547 39.9943 18.7536 40.0143H18.6734V39.914V39.6533V39.5731H18.7536C19.1347 39.553 19.4756 39.4527 19.6963 39.2321C19.8968 39.0315 20.0172 38.7507 20.0172 38.3696C20.0172 38.2894 19.9971 38.1891 19.9771 38.0888C19.957 37.9885 19.9169 37.8883 19.8768 37.788C19.8768 37.7679 19.8567 37.7278 19.7765 37.6476C19.7364 37.5874 19.6762 37.5272 19.596 37.4871C19.5358 37.447 19.4556 37.3868 19.3954 37.3467L19.3352 37.3066C19.235 37.2464 19.1547 37.2063 19.0745 37.1662C18.7736 37.0458 18.553 36.9656 18.4327 36.9255L18.3524 36.9054C18.0115 36.7851 17.7106 36.6046 17.4699 36.384C17.2292 36.1433 17.0888 35.8224 17.0888 35.4212C17.0888 35.1605 17.149 34.9198 17.2693 34.6991C17.3897 34.4986 17.5702 34.3181 17.7908 34.1777C18.1117 33.9771 18.4928 33.8768 18.8539 33.8969C19.235 33.9169 19.616 34.0373 19.9169 34.2579L19.957 34.2779V34.3181V34.6189V34.7994L19.8166 34.6791C19.6562 34.5587 19.4957 34.4585 19.3352 34.3983C19.1547 34.3381 18.9742 34.298 18.7937 34.298C18.5931 34.298 18.3925 34.3381 18.2321 34.3983C18.0716 34.4585 17.9312 34.5587 17.8109 34.6791C17.7106 34.7794 17.6504 34.8797 17.5903 35C17.5501 35.1203 17.51 35.2407 17.51 35.3811C17.51 35.5817 17.5501 35.7421 17.6504 35.9026C17.7507 36.063 17.8911 36.1834 18.0917 36.3037C18.2923 36.4241 18.5329 36.5043 18.7736 36.6046C19.4556 36.8653 20.1977 37.1461 20.3983 37.9484C20.4384 38.1089 20.4585 38.2894 20.4384 38.4699C20.4183 38.6905 20.3983 38.8711 20.3381 39.0115ZM27.3582 34.0373V34.2779V34.3582H27.2779H25.4728V39.914V39.9943H25.3925H25.1318H25.0516V39.914V34.3582H23.2464H23.1662V34.2779V34.0373V33.957H23.2464H27.2779H27.3582V34.0373ZM35.2607 40.0143C34.8395 39.1719 34.4384 38.3095 34.0372 37.447C33.6361 36.5845 33.235 35.7221 32.8739 34.8797C32.5129 35.6819 32.1318 36.5845 31.7507 37.4269C31.3295 38.3696 30.9484 39.2722 30.6275 39.9542L30.6075 40.0143H30.5473H30.2264H30.086L30.1461 39.894L32.7736 33.9771L32.8539 33.7966L32.9341 33.9771L35.7622 40.0143H35.2607ZM42.9026 40.0143H42.6218H42.5616L42.5415 39.9542L41.5989 37.808C41.5186 37.8281 41.4384 37.8481 41.3582 37.8682C41.2378 37.8883 41.1375 37.8883 41.0172 37.8883H39.5931V39.914V39.9943H39.5129H39.2521H39.1719V39.914L39.192 34.0172V33.937H39.2722H39.8338C40.235 33.937 40.6562 33.937 41.0172 33.937C41.3782 33.937 41.6791 33.9971 41.9599 34.1375C42.2407 34.2779 42.4613 34.4785 42.6418 34.7393C42.8023 34.9599 42.9026 35.2006 42.9427 35.4413C43.0029 35.702 43.0029 35.9627 42.9627 36.2436C42.9026 36.5645 42.8023 36.8653 42.6218 37.106C42.4613 37.3266 42.2607 37.5072 42 37.6476L42.9828 39.8739L43.043 39.9943H42.9026V40.0143ZM52.7708 36.1834L51.3467 37.5473L51.6877 39.4527L51.7679 39.8539L51.3868 39.6734L49.6017 38.7908L47.8367 39.6734L47.4556 39.8539L47.5158 39.4527L47.8367 37.5473L46.4126 36.2034L46.1117 35.9226L46.5329 35.8625L48.4986 35.5616L49.3811 33.8367L49.5817 33.4756L49.7822 33.8367L50.6848 35.5616L52.6705 35.8424L53.0917 35.9026L52.7708 36.1834ZM57.3037 39.914V39.9943H57.2235H56.9627H56.8825V39.914V34.3582H55.0774H54.9971V34.2779V34.0373V33.957H55.0774H59.1089H59.1891V34.0373V34.2779V34.3582H59.1089H57.3037V39.914Z" fill="white"/>
</svg>
