<svg width="305" height="280" viewBox="0 0 305 280" fill="none" xmlns="http://www.w3.org/2000/svg">
<path fill-rule="evenodd" clip-rule="evenodd" d="M169.303 147.087C169.704 146.365 170.024 145.643 170.105 144.681C170.265 143.799 170.265 142.917 170.105 142.115C169.944 141.313 169.623 140.591 169.142 139.869C168.501 138.987 167.779 138.345 166.977 137.944C166.175 137.543 165.212 137.383 164.09 137.383H158.476V149.734H164.09C164.491 149.734 164.811 149.734 165.132 149.653C165.453 149.573 165.774 149.573 166.095 149.413L166.977 149.092L167.137 149.012C167.298 148.932 167.458 148.851 167.618 148.771C168.26 148.29 168.821 147.729 169.303 147.087Z" fill="white"/>
<path fill-rule="evenodd" clip-rule="evenodd" d="M305 105.944L200.82 91.107C196.249 82.5256 152.781 0.641599 151.898 0L105.062 91.107L0 107.388C24.7818 131.127 49.8041 154.705 74.8265 178.204L59.1875 279.897L153.182 232.82L247.657 279.015C247.978 278.694 231.697 186.946 230.093 178.284L305 105.944ZM81.3226 155.989C80.7612 157.272 79.9592 158.234 78.9166 158.956C77.874 159.598 76.5909 159.918 74.9869 159.999H74.6661V159.598V158.555V158.234H74.9869C76.5107 158.154 77.874 157.753 78.7562 156.871C79.5582 156.069 80.0394 154.946 80.0394 153.422C80.0394 153.102 79.9592 152.701 79.879 152.299C79.7988 151.898 79.6384 151.497 79.478 151.096C79.478 151.016 79.3978 150.856 79.077 150.535C78.9166 150.295 78.676 150.054 78.3552 149.894C78.1146 149.733 77.7938 149.493 77.5532 149.332L77.3127 149.172C76.9117 148.931 76.5909 148.771 76.2701 148.61C75.0671 148.129 74.1849 147.808 73.7037 147.648L73.3829 147.568C72.0195 147.087 70.8165 146.365 69.8541 145.483C68.8917 144.52 68.3303 143.237 68.3303 141.633C68.3303 140.59 68.5709 139.628 69.0521 138.746C69.5333 137.944 70.2551 137.222 71.1373 136.661C72.4205 135.859 73.9443 135.458 75.3879 135.538C76.9117 135.618 78.4354 136.099 79.6385 136.981L79.7988 137.062V137.222V138.425V139.147L79.2374 138.666C78.5958 138.184 77.9542 137.783 77.3127 137.543C76.5909 137.302 75.869 137.142 75.1472 137.142C74.3453 137.142 73.5433 137.302 72.9017 137.543C72.2601 137.783 71.6987 138.184 71.2175 138.666C70.8165 139.067 70.5759 139.468 70.3353 139.949C70.1749 140.43 70.0145 140.911 70.0145 141.473C70.0145 142.275 70.1749 142.916 70.5759 143.558C70.9769 144.199 71.5383 144.681 72.3403 145.162C73.1423 145.643 74.1047 145.964 75.0671 146.365C77.7938 147.407 80.7612 148.53 81.5632 151.738C81.7236 152.38 81.8038 153.102 81.7236 153.823C81.6434 154.706 81.5632 155.427 81.3226 155.989ZM109.393 136.099V137.062V137.382H109.072H101.854V159.598V159.918H101.533H100.49H100.17V159.598V137.382H92.9516H92.6308V137.062V136.099V135.778H92.9516H109.072H109.393V136.099ZM140.991 159.999C139.307 156.63 137.703 153.182 136.099 149.733C134.495 146.285 132.891 142.836 131.448 139.468C130.004 142.676 128.48 146.285 126.956 149.653C125.272 153.422 123.748 157.031 122.465 159.758L122.385 159.999H122.144H120.861H120.3L120.54 159.517L131.047 135.859L131.367 135.137L131.688 135.859L142.996 159.999H140.991ZM171.547 159.999H170.425H170.184L170.104 159.758L166.334 151.177C166.014 151.257 165.693 151.337 165.372 151.417C164.891 151.498 164.49 151.497 164.009 151.497H158.314V159.598V159.918H157.994H156.951H156.63V159.598L156.71 136.019V135.698H157.031H159.277C160.881 135.698 162.565 135.698 164.009 135.698C165.452 135.698 166.655 135.939 167.778 136.5C168.901 137.062 169.783 137.864 170.505 138.906C171.146 139.788 171.547 140.751 171.708 141.713C171.948 142.756 171.948 143.798 171.788 144.921C171.547 146.204 171.146 147.407 170.425 148.37C169.783 149.252 168.981 149.974 167.938 150.535L171.868 159.437L172.109 159.918H171.547V159.999ZM211.006 144.681L205.312 150.134L206.675 157.753L206.996 159.357L205.472 158.635L198.334 155.106L191.277 158.635L189.753 159.357L189.993 157.753L191.277 150.134L185.582 144.761L184.379 143.638L186.064 143.397L193.923 142.194L197.452 135.297L198.254 133.854L199.056 135.297L202.665 142.194L210.605 143.317L212.289 143.558L211.006 144.681ZM229.131 159.598V159.918H228.81H227.768H227.447V159.598V137.382H220.229H219.908V137.062V136.099V135.778H220.229H236.349H236.67V136.099V137.062V137.382H236.349H229.131V159.598Z" fill="white"/>
</svg>
